<?xml version="1.0" encoding="utf-8"?>
<!-- Generator: Adobe Illustrator 22.1.0, SVG Export Plug-In . SVG Version: 6.00 Build 0)  -->
<svg version="1.1" id="Layer_1" xmlns="http://www.w3.org/2000/svg" xmlns:xlink="http://www.w3.org/1999/xlink" x="0px" y="0px"
	 viewBox="0 0 400 400" style="enable-background:new 0 0 400 400;" xml:space="preserve">
<style type="text/css">
	.st0{fill-rule:evenodd;clip-rule:evenodd;fill:#FFFDF2;}
	.st1{fill-rule:evenodd;clip-rule:evenodd;fill:#1B2E3B;}
	.st2{fill-rule:evenodd;clip-rule:evenodd;fill:#4EA100;}
	.st3{fill-rule:evenodd;clip-rule:evenodd;fill:#ED7500;}
	.st4{fill-rule:evenodd;clip-rule:evenodd;fill:#00949C;}
	.st5{fill-rule:evenodd;clip-rule:evenodd;fill:#2C4B5F;}
</style>
<path class="st0" d="M125.1,32.7L125.1,32.7h3.9V18h-3.9 M131.9,32.7h3.9v-7.3l4.2,7.3h3.9V18h-3.9v7.5l-4.2-7.5h-4V32.7L131.9,32.7
	z M146.7,32.7h3.9v-5.5l5.4-0.2v-3.2l-5.4-0.2v-0.9c0-0.5,0-1.1,1-1.1h5.4v-3.3c-2.4-0.3-6.6-0.3-6.6-0.3c-1.7,0-3.8,0.7-3.8,3.5
	V32.7L146.7,32.7z M159.1,25.4c0,6.7,2.5,7.4,6.1,7.4c3.6,0,6.1-0.8,6.1-7.4c0-6.9-2.6-7.6-6.1-7.6
	C161.9,17.9,159.1,18.5,159.1,25.4L159.1,25.4z M163.1,25.4c0-3.6,0.4-4.1,2.2-4.1c1.8,0,2.2,0.6,2.2,4.1c0,3.1-0.5,3.9-2.2,3.9
	C163.3,29.3,163.1,28.5,163.1,25.4L163.1,25.4z M173.6,25.3c0,4.1,0.6,7.8,4.8,7.6c1.6-0.1,1.9-0.3,2.5-1.1l1.1,1h2.8v-8.8
	c-0.5,0-0.9-0.1-1.4-0.1c-1.3,0-2.6,0-3.5,0.5v2.4h1v1.5c0,0-0.2,0.9-1.5,0.9c-1.8,0-1.9-0.6-1.9-3.9c0-3.3,0.3-4.2,2.2-4.2
	c2.6,0,4.8,0.4,4.9,0.4v-3c-2.7-0.7-2.9-0.7-6.1-0.7C174.5,17.8,173.6,20.8,173.6,25.3L173.6,25.3z M187.6,32.7h3.9v-5.5l1.2,0.3
	l1.9,5.2h4.5l-2.5-5.6c1-0.4,2.2-0.9,2.2-4.4c0-3.7-1.9-4.7-4.5-4.7h-6.6V32.7L187.6,32.7z M191.5,24.3v-3h2.2
	c0.9,0,1.1,0.5,1.1,1.4c0,1-0.1,1.6-1.1,1.6H191.5L191.5,24.3z M200.9,32.7h4l0.8-2.6h4l0.9,2.6h4L210.2,18h-4.6L200.9,32.7
	L200.9,32.7z M206.7,26.8l1.2-4l1.1,4H206.7L206.7,26.8z M216.9,32.7h3.9v-5.4c0.1,0.1,1.9,0.3,2.7,0.4c1.9,0.1,4.6-0.2,4.6-5
	c0-4.3-2.5-4.8-4.6-4.8h-6.6V32.7L216.9,32.7z M220.8,24.4v-3.1h2.3c0.7,0,1,0.5,1,1.5c0,1-0.3,1.6-1,1.6H220.8L220.8,24.4z
	 M230.7,32.7h3.9v-5.4h3.4v5.4h3.9V18H238v5.9h-3.4V18h-3.9V32.7L230.7,32.7z M244.8,32.7h3.9V18h-3.9V32.7L244.8,32.7z M251.2,25.3
	c0,5,1.4,7.5,5.1,7.5c3,0.1,4.1-0.1,5.3-0.6v-3c0,0-2,0.2-4.1,0.2c-2,0-2.4-0.7-2.4-4c0-4.1,0.7-4,2.4-4c2.1,0,4.1,0.3,4.1,0.3v-3
	c-1.7-0.6-2.4-0.8-5.3-0.8C252.3,17.8,251.2,20.6,251.2,25.3L251.2,25.3z M264.1,23.1c0,0.9,0.2,4.3,4,4.3h1.8
	c0.9,0,1.1,0.3,1.1,0.9v0.3c0,0.6-0.3,0.8-1.2,0.8c-1.9,0-4.4-0.1-5.2-0.2v3c2,0.7,2.5,0.7,6.2,0.7c2,0,4.1-0.8,4.1-4.5v-0.7
	c0-1.6-0.7-4.3-3.8-4.3h-1.9c-1.1,0-1.2-0.3-1.2-1v-0.2c0-0.8,0.4-0.9,1.5-0.9c1.3,0,3.5,0.1,4.8,0.2v-3c-1.5-0.5-3.3-0.9-6.3-0.7
	c-2.3,0.1-4,1.4-4,4V23.1z"/>
<rect x="0" y="391.7" class="st1" width="400" height="8.3"/>
<g id="a1">
	<path class="st2" d="M258,196.7l0.6,0c0.6,0,1.1,0.6,1.1,1.3l-0.1,1.5c0.7,0.2,1.3,0.5,1.9,1l1.1-1c0.4-0.4,1-0.4,1.5-0.1l0,0
		l0.2,0.2l0,0l0.4,0.4l0,0l0.2,0.2l0,0c0.2,0.5,0.2,1.1-0.3,1.4l-1.1,1c0.3,0.6,0.6,1.3,0.7,2l1.5,0.1c0.6,0,1.1,0.6,1.1,1.3l0,0.6
		c0,0.6-0.6,1.1-1.3,1.1l-1.5-0.1c-0.2,0.7-0.5,1.3-1,1.9l1,1.1c0.4,0.4,0.4,1,0.1,1.5l0,0l-0.8,0.7l0,0c-0.5,0.3-1.1,0.2-1.4-0.3
		l-1-1.1c-0.6,0.3-1.3,0.6-2,0.7l-0.1,1.5c0,0.6-0.6,1.1-1.3,1.1l-0.6,0c-0.6,0-1.1-0.6-1.1-1.3l0.1-1.5c-0.7-0.2-1.3-0.5-1.9-1
		l-1.1,1c-0.4,0.4-1,0.4-1.5,0.1l0,0l-0.2-0.2l-0.4-0.4l-0.2-0.2l0,0c-0.2-0.5-0.2-1.1,0.3-1.4l1.1-1c-0.3-0.6-0.6-1.3-0.7-2
		l-1.5-0.1c-0.6,0-1.1-0.6-1.1-1.3l0-0.6c0-0.6,0.6-1.1,1.3-1.1l1.5,0.1c0.2-0.7,0.5-1.3,1-1.9l-1-1.1c-0.3-0.3-0.4-0.8-0.2-1.2
		c0.1-0.3,0.3-0.5,0.6-0.7c0.6-0.5,1.3-0.7,1.9-0.1l1,1.1c0.6-0.3,1.3-0.6,2-0.7l0.1-1.5C256.8,197.2,257.3,196.7,258,196.7
		L258,196.7z M257.8,203.2c-1.4-0.1-2.6,0.9-2.7,2.3c-0.1,1.4,0.9,2.6,2.3,2.7c1.4,0.1,2.6-0.9,2.7-2.3
		C260.2,204.5,259.2,203.3,257.8,203.2L257.8,203.2z M257.9,201.9c0.8,0.1,1.6,0.4,2.2,0.9l0.9-0.8c-0.8-0.7-1.8-1.2-3-1.3
		c-1.2-0.1-2.3,0.2-3.1,0.9l0.8,0.9C256.2,202.1,257,201.9,257.9,201.9L257.9,201.9z M260.8,203.7c0.4,0.7,0.6,1.5,0.6,2.3
		c-0.1,0.8-0.4,1.6-0.9,2.2l0.8,0.9c0.7-0.8,1.2-1.8,1.3-3c0.1-1.2-0.2-2.3-0.9-3.1L260.8,203.7L260.8,203.7z M259.7,208.9
		c-0.7,0.4-1.5,0.6-2.3,0.6c-0.8-0.1-1.6-0.4-2.2-0.9l-0.9,0.8c0.8,0.7,1.8,1.2,3,1.3c1.2,0.1,2.3-0.2,3.1-0.9L259.7,208.9
		L259.7,208.9z M254.4,207.8c-0.4-0.7-0.6-1.5-0.6-2.3c0.1-0.8,0.4-1.6,0.9-2.2l-0.8-0.9c-0.7,0.8-1.2,1.8-1.3,3
		c-0.1,1.2,0.2,2.3,0.9,3.1L254.4,207.8z"/>
	<path class="st3" d="M202.3,44.1c1.3,0.3,2.6,0.8,3.6,1.5l1.4-0.5l1.8,1.8l-0.5,1.4c0.7,1.1,1.3,2.3,1.5,3.6l1.3,0.6v2.5l-1.3,0.6
		c-0.3,1.3-0.8,2.6-1.5,3.6l0.5,1.4l-1.8,1.8l-1.4-0.5c-1.1,0.7-2.3,1.3-3.6,1.5l-0.6,1.3h-2.5l-0.6-1.3c-1.3-0.3-2.6-0.8-3.6-1.5
		l-1.4,0.5l-1.8-1.8l0.5-1.4c-0.7-1.1-1.3-2.3-1.5-3.6l-1.3-0.6v-2.5l1.3-0.6c0.3-1.3,0.8-2.6,1.5-3.6l-0.5-1.4l1.8-1.8l1.4,0.5
		c1.1-0.7,2.3-1.3,3.6-1.5l0.6-1.3h2.5L202.3,44.1L202.3,44.1z M196,48.8l1.4,1.4l0.2-0.2l0.6,0.2c0.4-0.3,0.9-0.5,1.4-0.6l0.3-0.6
		h1.1l0.3,0.6c0.5,0.1,1,0.3,1.4,0.6l0.6-0.2l0.2,0.2l1.4-1.4c-1.2-1.1-2.8-1.8-4.5-1.8S197.2,47.7,196,48.8L196,48.8z M199,51.8
		l1.5,1.5l1.5-1.5c-0.4-0.3-0.9-0.5-1.5-0.5C199.9,51.3,199.4,51.5,199,51.8L199,51.8z M200.8,53.7l1.5,1.5c0.3-0.4,0.5-0.9,0.5-1.5
		c0-0.6-0.2-1.1-0.5-1.5L200.8,53.7L200.8,53.7z M203.9,56.8l1.4,1.4c1.1-1.2,1.8-2.8,1.8-4.5c0-1.7-0.7-3.3-1.8-4.5l-1.4,1.4
		l0.2,0.2l-0.2,0.6c0.3,0.4,0.5,0.9,0.6,1.4l0.6,0.3v1.1l-0.6,0.3c-0.1,0.5-0.3,1-0.6,1.4l0.2,0.6L203.9,56.8L203.9,56.8z M205,58.5
		l-1.4-1.4l-0.2,0.2l-0.6-0.2c-0.4,0.3-0.9,0.5-1.4,0.6l-0.3,0.6H200l-0.3-0.6c-0.5-0.1-1-0.3-1.4-0.6l-0.6,0.2l-0.2-0.2l-1.4,1.4
		c1.2,1.1,2.8,1.8,4.5,1.8S203.8,59.6,205,58.5L205,58.5z M202,55.5l-1.5-1.5l-1.5,1.5c0.4,0.3,0.9,0.5,1.5,0.5
		C201,56,201.6,55.8,202,55.5L202,55.5z M200.1,53.7l-1.5-1.5c-0.3,0.4-0.5,0.9-0.5,1.5c0,0.6,0.2,1.1,0.5,1.5L200.1,53.7
		L200.1,53.7z M197,50.6l-1.4-1.4c-1.1,1.2-1.8,2.8-1.8,4.5c0,1.7,0.7,3.3,1.8,4.5l1.4-1.4l-0.2-0.2l0.2-0.6
		c-0.3-0.4-0.5-0.9-0.6-1.4l-0.6-0.3v-1.1l0.6-0.3c0.1-0.5,0.3-1,0.6-1.4l-0.2-0.6L197,50.6z"/>
	<path  class="st3" d="M156.6,190.2l1-1.2c1.5,0.8,2.9,1.9,4,3.2l-1,1.2c0.8,1,1.4,2.1,1.8,3.3l1.5-0.2c0.2,0.8,0.4,1.6,0.5,2.4
		c0.1,0.9,0.1,1.8,0,2.6l-1.5,0.2c-0.1,1.3-0.5,2.5-1.1,3.6l1.2,1c-0.8,1.5-1.9,2.9-3.2,4l-1.2-1c-1,0.8-2.1,1.4-3.3,1.8l0.2,1.5
		c-0.8,0.3-1.6,0.4-2.5,0.5c-0.9,0.1-1.7,0.1-2.6,0l-0.2-1.5c-1.3-0.1-2.6-0.5-3.7-1.1l-1,1.2c-1.5-0.8-2.9-1.9-4-3.2l1-1.2
		c-0.8-1-1.4-2.1-1.8-3.3l-1.5,0.2c-0.2-0.8-0.4-1.6-0.5-2.4c-0.1-0.9-0.1-1.8,0-2.6l1.5-0.2c0.2-1.3,0.5-2.5,1.1-3.6l-1.2-1
		c0.8-1.5,1.9-2.9,3.2-4l1.2,1c1-0.8,2.1-1.4,3.3-1.8l-0.2-1.5c0.8-0.3,1.6-0.4,2.5-0.5c0.9-0.1,1.7-0.1,2.6,0l0.2,1.5
		C154.2,189.3,155.4,189.7,156.6,190.2L156.6,190.2z M146.2,194.1l2.3,2.3c0.7-0.5,1.6-0.9,2.5-1c1.4-0.2,2.7,0.2,3.7,1l2.3-2.3
		c-1.7-1.4-4-2.2-6.4-1.9C148.9,192.4,147.4,193.1,146.2,194.1L146.2,194.1z M147.5,197.4l-2.3-2.3c-1.4,1.7-2.2,4-1.9,6.4
		c0.2,1.7,0.9,3.2,1.9,4.5l2.3-2.3c-0.5-0.7-0.9-1.6-1-2.5C146.3,199.7,146.7,198.5,147.5,197.4L147.5,197.4z M155.7,197.4
		c0.5,0.7,0.9,1.6,1,2.5c0.2,1.4-0.2,2.7-1,3.7l2.3,2.3c1.4-1.7,2.2-4,1.9-6.4c-0.2-1.7-0.9-3.2-1.9-4.5L155.7,197.4L155.7,197.4z
		 M154.7,204.6c-0.7,0.5-1.6,0.9-2.5,1c-1.4,0.2-2.7-0.2-3.7-1l-2.3,2.3c1.7,1.4,4,2.2,6.4,1.9c1.7-0.2,3.2-0.9,4.5-1.9L154.7,204.6
		L154.7,204.6z M151.4,199.4c-0.6,0.1-1.1,0.7-1,1.3c0.1,0.6,0.7,1.1,1.3,1c0.6-0.1,1.1-0.7,1-1.3
		C152.7,199.7,152.1,199.3,151.4,199.4z"/>
	<path class="st4" d="M232.4,105.8c2.2,0.6,4.2,1.4,6.1,2.5l4.5-4.4c3.2,2.2,6,5,8.1,8.2l-4.5,4.4c1.1,1.8,1.9,3.9,2.4,6l6.3,0
		c0.4,1.8,0.5,3.7,0.5,5.6c0,2-0.2,4-0.6,5.9l-6.3,0c-0.6,2.1-1.4,4.1-2.5,6l4.4,4.5c-2.2,3.2-5,6-8.2,8.1l-4.4-4.5
		c-1.8,1.1-3.8,1.9-5.9,2.4v6.3c-1.9,0.4-3.8,0.6-5.8,0.6c-2,0-3.9-0.2-5.8-0.6v-6.3c-2.2-0.6-4.2-1.4-6.1-2.5l-4.5,4.4
		c-3.2-2.2-6-5-8.1-8.2l4.5-4.4c-1.1-1.8-1.9-3.9-2.4-6l-6.3,0c-0.4-1.8-0.5-3.7-0.5-5.6c0-2,0.2-4,0.6-5.9l6.3,0
		c0.6-2.1,1.4-4.1,2.5-6l-4.4-4.5c2.2-3.2,5-6,8.2-8.1l4.4,4.5c1.8-1.1,3.8-1.9,5.9-2.4v-6.3c1.9-0.4,3.8-0.6,5.8-0.6
		c2,0,3.9,0.2,5.8,0.6V105.8L232.4,105.8z M235,121.9l-3.7,3.7c0.5,0.8,0.7,1.7,0.7,2.7c0,1-0.3,1.9-0.7,2.7l3.7,3.7
		c1.3-1.8,2.2-4,2.2-6.4C237.1,125.8,236.3,123.6,235,121.9L235,121.9z M223.8,133l-3.7,3.7c1.8,1.3,4,2.2,6.4,2.2
		c2.4,0,4.6-0.8,6.4-2.2l-3.7-3.7c-0.8,0.5-1.7,0.7-2.7,0.7C225.6,133.7,224.7,133.4,223.8,133L223.8,133z M218.2,134.6l3.7-3.7
		c-0.5-0.8-0.7-1.7-0.7-2.7c0-1,0.3-1.9,0.7-2.7l-3.7-3.7c-1.3,1.8-2.2,4-2.2,6.4C216,130.6,216.8,132.8,218.2,134.6L218.2,134.6z
		 M229.3,123.5l3.7-3.7c-1.8-1.3-4-2.2-6.4-2.2c-2.4,0-4.6,0.8-6.4,2.2l3.7,3.7c0.8-0.5,1.7-0.7,2.7-0.7
		C227.6,122.8,228.5,123,229.3,123.5L229.3,123.5z M226.6,108.4c-5.5,0-10.4,2.2-14,5.8c-3.6,3.6-5.8,8.6-5.8,14
		c0,5.5,2.2,10.4,5.8,14c3.6,3.6,8.6,5.8,14,5.8c5.5,0,10.4-2.2,14-5.8c3.6-3.6,5.8-8.6,5.8-14c0-5.5-2.2-10.4-5.8-14
		C237,110.6,232.1,108.4,226.6,108.4L226.6,108.4z M239,115.8c-3.2-3.2-7.6-5.1-12.4-5.1c-4.8,0-9.2,2-12.4,5.1
		c-3.2,3.2-5.1,7.6-5.1,12.4c0,4.8,2,9.2,5.1,12.4c3.2,3.2,7.6,5.1,12.4,5.1c4.8,0,9.2-2,12.4-5.1c3.2-3.2,5.1-7.6,5.1-12.4
		C244.1,123.4,242.1,119,239,115.8L239,115.8z M226.6,113.9c-7.9,0-14.3,6.4-14.3,14.3c0,7.9,6.4,14.3,14.3,14.3
		c7.9,0,14.3-6.4,14.3-14.3C240.9,120.3,234.5,113.9,226.6,113.9L226.6,113.9z M226.6,112.9c-8.5,0-15.3,6.9-15.3,15.3
		c0,8.5,6.9,15.3,15.3,15.3c8.5,0,15.3-6.9,15.3-15.3C241.9,119.8,235,112.9,226.6,112.9z"/>
	<path class="st2" d="M275.9,133.4l1.1-2.7c3,0.6,5.9,1.8,8.5,3.6l-1.1,2.7c1.8,1.3,3.4,2.9,4.7,4.8l2.7-1.1c0.8,1.2,1.5,2.6,2.1,4
		c0.6,1.5,1.1,3,1.4,4.5l-2.7,1.1c0.4,2.3,0.3,4.5,0,6.7l2.7,1.1c-0.6,3-1.8,5.9-3.6,8.5l-2.7-1.1c-1.3,1.8-2.8,3.4-4.7,4.7l1.1,2.7
		c-1.3,0.8-2.6,1.6-4.1,2.2c-1.5,0.6-2.9,1-4.4,1.3l-1.1-2.7c-2.3,0.4-4.6,0.4-6.8,0l-1.1,2.7c-3-0.6-5.9-1.8-8.5-3.6l1.1-2.7
		c-1.8-1.3-3.4-2.9-4.7-4.8l-2.7,1.1c-0.8-1.2-1.5-2.6-2.1-4c-0.6-1.5-1.1-3-1.4-4.5l2.7-1.1c-0.4-2.3-0.3-4.5,0-6.7l-2.7-1.1
		c0.6-3,1.8-5.9,3.6-8.5l2.7,1.1c1.3-1.8,2.8-3.4,4.7-4.7l-1.1-2.7c1.3-0.8,2.6-1.6,4.1-2.2c1.5-0.6,2.9-1,4.4-1.3l1.1,2.7
		C271.4,133,273.7,133,275.9,133.4L275.9,133.4z M284.2,145l-2.2,2.2c0.4,0.6,0.8,1.3,1.1,2c1.5,3.6,1,7.6-1.1,10.7l2.2,2.2
		c0.7-0.9,1.3-1.9,1.7-3c1.4-3.4,1.5-7.4,0-11.1C285.4,146.9,284.8,145.9,284.2,145L284.2,145z M279.7,149.4l-2.6,2.6
		c0.3,1,0.3,2.1,0,3.1l2.6,2.6c0.2-0.3,0.3-0.6,0.5-0.9c0.8-2,0.9-4.3,0-6.4C280.1,150,279.9,149.7,279.7,149.4L279.7,149.4z
		 M270.9,158.2l-2.6,2.6c0.3,0.2,0.6,0.3,0.9,0.5c2,0.8,4.3,0.9,6.4,0c0.3-0.1,0.6-0.3,0.9-0.5l-2.6-2.6
		C273,158.5,271.9,158.5,270.9,158.2L270.9,158.2z M266.1,163l-2.2,2.2c0.9,0.7,1.9,1.3,3,1.7c3.4,1.4,7.4,1.5,11.1,0
		c1.1-0.5,2.1-1,3-1.7l-2.2-2.2c-0.6,0.4-1.3,0.8-2,1.1C273.2,165.5,269.2,165,266.1,163L266.1,163z M260.8,162.1l2.2-2.2
		c-0.4-0.6-0.8-1.3-1.1-2c-1.5-3.6-1-7.6,1.1-10.7l-2.2-2.2c-0.7,0.9-1.3,1.9-1.7,3c-1.4,3.4-1.5,7.4,0,11.1
		C259.5,160.2,260.1,161.2,260.8,162.1L260.8,162.1z M265.2,157.7l2.6-2.6c-0.3-1-0.3-2.1,0-3.1l-2.6-2.6c-0.2,0.3-0.3,0.6-0.5,0.9
		c-0.8,2-0.9,4.3,0,6.4C264.9,157.1,265,157.4,265.2,157.7L265.2,157.7z M274,148.9l2.6-2.6c-0.3-0.2-0.6-0.3-0.9-0.5
		c-2-0.8-4.3-0.9-6.4,0c-0.3,0.1-0.6,0.3-0.9,0.5l2.6,2.6C272,148.5,273,148.5,274,148.9L274,148.9z M278.8,144.1l2.2-2.2
		c-0.9-0.7-1.9-1.3-3-1.7c-3.4-1.4-7.4-1.5-11.1,0c-1.1,0.5-2.1,1-3,1.7l2.2,2.2c0.6-0.4,1.3-0.8,2-1.1
		C271.8,141.5,275.7,142,278.8,144.1z"/>
	<path class="st5" d="M239.6,208.8h0.8l0.1,2.4c0.3,0,0.7,0,1,0.1l0.4-2.3l0.7,0.1l-0.2,2.4c0.4,0.1,0.8,0.1,1.2,0.2l0.8-2.3
		l0.7,0.2l-0.5,2.3c0.3,0.1,0.6,0.2,0.9,0.3l1-2.1l0.7,0.3l-0.8,2.3c0.4,0.2,0.7,0.3,1.1,0.5l1.3-2l0.7,0.4l-1.1,2.1
		c0.3,0.2,0.6,0.4,0.8,0.5l1.5-1.8l0.6,0.5l-1.3,2c0.3,0.3,0.6,0.5,0.9,0.8l1.8-1.6l0.5,0.5l-1.6,1.8c0.2,0.2,0.4,0.5,0.7,0.7l2-1.3
		l0.5,0.6l-1.8,1.6c0.2,0.3,0.5,0.7,0.7,1l2.1-1.1l0.4,0.7l-2,1.3c0.2,0.3,0.3,0.6,0.4,0.9l2.2-0.8l0.3,0.7l-2.1,1.1
		c0.1,0.4,0.3,0.7,0.4,1.1l2.3-0.5l0.2,0.7l-2.3,0.8c0.1,0.3,0.1,0.6,0.2,1l2.4-0.2l0.1,0.7l-2.3,0.5c0,0.4,0.1,0.8,0.1,1.2l2.4,0.1
		v0.8l-2.4,0.1c0,0.3,0,0.7-0.1,1l2.3,0.4l-0.1,0.7L256,230c-0.1,0.4-0.1,0.8-0.2,1.2l2.3,0.8l-0.2,0.7l-2.3-0.5
		c-0.1,0.3-0.2,0.6-0.3,0.9l2.1,1l-0.3,0.7l-2.3-0.8c-0.2,0.4-0.3,0.7-0.5,1.1l2,1.3l-0.4,0.7l-2.1-1.1c-0.2,0.3-0.4,0.6-0.5,0.8
		l1.8,1.5l-0.5,0.6l-2-1.3c-0.3,0.3-0.5,0.6-0.8,0.9l1.6,1.8l-0.5,0.5l-1.8-1.6c-0.2,0.2-0.5,0.4-0.7,0.7l1.3,2l-0.6,0.5l-1.6-1.8
		c-0.3,0.2-0.7,0.5-1,0.7l1.1,2.1l-0.7,0.4l-1.3-2c-0.3,0.2-0.6,0.3-0.9,0.4l0.8,2.2l-0.7,0.3l-1.1-2.1c-0.4,0.1-0.7,0.3-1.1,0.4
		l0.5,2.3l-0.7,0.2l-0.8-2.3c-0.3,0.1-0.6,0.1-1,0.2l0.2,2.4l-0.7,0.1l-0.5-2.3c-0.4,0-0.8,0.1-1.2,0.1l-0.1,2.4h-0.8l-0.1-2.4
		c-0.3,0-0.7,0-1-0.1L238,246l-0.7-0.1l0.2-2.4c-0.4-0.1-0.8-0.1-1.2-0.2l-0.8,2.3l-0.7-0.2l0.5-2.3c-0.3-0.1-0.6-0.2-0.9-0.3
		l-1,2.1l-0.7-0.3l0.8-2.3c-0.4-0.2-0.7-0.3-1.1-0.5l-1.3,2l-0.7-0.4l1.1-2.1c-0.3-0.2-0.6-0.4-0.8-0.5l-1.5,1.8l-0.6-0.5l1.3-2
		c-0.3-0.3-0.6-0.5-0.9-0.8l-1.8,1.6l-0.5-0.5l1.6-1.8c-0.2-0.2-0.4-0.5-0.7-0.7l-2,1.3l-0.5-0.6l1.8-1.6c-0.2-0.3-0.5-0.7-0.7-1
		l-2.1,1.1l-0.4-0.7l2-1.3c-0.2-0.3-0.3-0.6-0.4-0.9l-2.2,0.8l-0.3-0.7l2.1-1.1c-0.1-0.4-0.3-0.7-0.4-1.1l-2.3,0.5l-0.2-0.7l2.3-0.8
		c-0.1-0.3-0.1-0.6-0.2-1l-2.4,0.2l-0.1-0.7l2.3-0.5c0-0.4-0.1-0.8-0.1-1.2l-2.4-0.1v-0.8l2.4-0.1c0-0.3,0-0.7,0.1-1l-2.3-0.4
		l0.1-0.7l2.4,0.2c0.1-0.4,0.1-0.8,0.2-1.2l-2.3-0.8l0.2-0.7l2.3,0.5c0.1-0.3,0.2-0.6,0.3-0.9l-2.1-1l0.3-0.7l2.3,0.8
		c0.2-0.4,0.3-0.7,0.5-1.1l-2-1.3l0.4-0.7l2.1,1.1c0.2-0.3,0.4-0.6,0.5-0.8l-1.8-1.5l0.5-0.6l2,1.3c0.3-0.3,0.5-0.6,0.8-0.9
		l-1.6-1.8l0.5-0.5l1.8,1.6c0.2-0.2,0.5-0.4,0.7-0.7l-1.3-2l0.6-0.5l1.6,1.8c0.3-0.2,0.7-0.5,1-0.7l-1.1-2.1l0.7-0.4l1.3,2
		c0.3-0.2,0.6-0.3,0.9-0.4l-0.8-2.2l0.7-0.3l1.1,2.1c0.4-0.1,0.7-0.3,1.1-0.4l-0.5-2.3l0.7-0.2l0.8,2.3c0.3-0.1,0.6-0.1,1-0.2
		l-0.2-2.4l0.7-0.1l0.5,2.3c0.4,0,0.8-0.1,1.2-0.1L239.6,208.8L239.6,208.8z M240,222c1,0,1.9,0.2,2.6,0.7l4.8-4.8
		c-2.1-1.6-4.7-2.6-7.5-2.6c-2.8,0-5.4,1-7.5,2.6l4.8,4.8C238.1,222.2,239,222,240,222L240,222z M244.8,224.8
		c0.4,0.8,0.7,1.7,0.7,2.6c0,1-0.2,1.9-0.7,2.6l4.8,4.8c1.6-2.1,2.6-4.7,2.6-7.5c0-2.8-1-5.4-2.6-7.5L244.8,224.8L244.8,224.8z
		 M242.6,232.3c-0.8,0.4-1.7,0.7-2.6,0.7c-1,0-1.9-0.2-2.6-0.7l-4.8,4.8c2.1,1.6,4.7,2.6,7.5,2.6c2.8,0,5.4-1,7.5-2.6L242.6,232.3
		L242.6,232.3z M235.1,230.1c-0.4-0.8-0.7-1.7-0.7-2.6c0-1,0.2-1.9,0.7-2.6l-4.8-4.8c-1.6,2.1-2.6,4.7-2.6,7.5c0,2.8,1,5.4,2.6,7.5
		L235.1,230.1z"/>
	<path class="st4" d="M219.1,242.8l3.4-0.5l1.6,4.8c1.6,0,3.2,0.2,4.8,0.6l2.7-4.2l3.2,1.3l-1,4.9c1.4,0.8,2.7,1.8,3.8,2.9l4.5-2.3
		l2.1,2.7l-3.3,3.7c0.8,1.4,1.4,2.9,1.8,4.4l5,0.3l0.5,3.4l-4.7,1.6c0,1.6-0.2,3.2-0.6,4.8l4.2,2.7l-1.3,3.2l-4.9-1
		c-0.8,1.4-1.8,2.7-2.9,3.8l2.3,4.5l-2.7,2.1l-3.7-3.3c-1.4,0.8-2.9,1.4-4.4,1.8l-0.3,5l-3.4,0.5l-1.6-4.8c-1.6,0-3.2-0.2-4.8-0.6
		l-2.7,4.2l-3.2-1.3l1-4.9c-1.4-0.8-2.7-1.8-3.8-2.9l-4.5,2.3l-2.1-2.7l3.3-3.7c-0.8-1.4-1.4-2.9-1.8-4.4l-5-0.3L200,268l4.7-1.6
		c0-1.6,0.2-3.2,0.6-4.8l-4.2-2.7l1.3-3.2l4.9,1c0.8-1.4,1.8-2.7,2.9-3.8l-2.3-4.5l2.7-2.1l3.7,3.3c1.4-0.8,2.9-1.4,4.4-1.8
		L219.1,242.8L219.1,242.8z M234.9,254.6l-2.6,3.4c1.8,1.8,3.1,4.2,3.4,6.9c0.4,2.8-0.2,5.4-1.6,7.7l3.4,2.6c2-3.1,2.9-6.9,2.4-10.8
		C239.5,260.4,237.6,257.1,234.9,254.6L234.9,254.6z M230.1,256.4l2.6-3.4c-3.1-2-6.9-2.9-10.8-2.4c-3.9,0.5-7.3,2.4-9.8,5.2
		l3.4,2.6c1.8-1.9,4.2-3.2,7-3.5C225.3,254.4,227.9,255,230.1,256.4L230.1,256.4z M218.1,276.6l-2.6,3.4c3.1,1.9,6.8,2.9,10.7,2.3
		c3.9-0.5,7.3-2.4,9.7-5.1l-3.4-2.6c-1.8,1.8-4.2,3.1-6.9,3.4C222.9,278.5,220.3,277.9,218.1,276.6L218.1,276.6z M213.3,278.4
		l2.6-3.4c-1.9-1.8-3.2-4.2-3.5-7c-0.4-2.7,0.2-5.3,1.5-7.5l-3.4-2.6c-1.9,3.1-2.9,6.8-2.3,10.7
		C208.7,272.5,210.6,275.9,213.3,278.4L213.3,278.4z M223,258.5c-4.4,0.6-7.5,4.6-6.9,9c0.6,4.4,4.6,7.5,9,6.9
		c4.4-0.6,7.5-4.6,6.9-9C231.4,261,227.4,257.9,223,258.5z"/>
	<path class="st4" d="M177.2,63.6c2.8,0.7,5.5,1.9,7.9,3.3l5.8-5.8c4.2,2.8,7.8,6.5,10.6,10.7l-5.8,5.8c1.4,2.4,2.5,5,3.2,7.8l8.2,0
		c0.5,2.4,0.7,4.8,0.7,7.3c0,2.7-0.3,5.2-0.8,7.7l-8.2,0c-0.7,2.8-1.8,5.4-3.3,7.8l5.8,5.8c-2.8,4.2-6.5,7.8-10.7,10.6l-5.8-5.8
		c-2.4,1.4-4.9,2.4-7.6,3.1v8.2c-2.4,0.5-5,0.7-7.5,0.7s-5.1-0.3-7.5-0.7v-8.2c-2.8-0.7-5.5-1.9-7.9-3.3l-5.8,5.8
		c-4.2-2.8-7.8-6.5-10.6-10.7l5.8-5.8c-1.4-2.4-2.5-5-3.2-7.8l-8.2,0c-0.5-2.4-0.7-4.8-0.7-7.3c0-2.7,0.3-5.2,0.8-7.7l8.2,0
		c0.7-2.8,1.8-5.4,3.3-7.8l-5.8-5.8c2.8-4.2,6.5-7.8,10.7-10.6l5.8,5.8c2.4-1.4,4.9-2.4,7.6-3.1v-8.2c2.4-0.5,5-0.7,7.5-0.7
		s5.1,0.3,7.5,0.7V63.6L177.2,63.6z M169.7,74.2c-10.3,0-18.6,8.3-18.6,18.6s8.3,18.6,18.6,18.6s18.6-8.3,18.6-18.6
		S180,74.2,169.7,74.2L169.7,74.2z M169.7,76.4c-9.1,0-16.5,7.4-16.5,16.5c0,9.1,7.4,16.5,16.5,16.5c9.1,0,16.5-7.4,16.5-16.5
		C186.1,83.7,178.8,76.4,169.7,76.4L169.7,76.4z M169.7,72.9c-11,0-20,8.9-20,20c0,11,8.9,20,20,20c11,0,20-8.9,20-20
		C189.6,81.8,180.7,72.9,169.7,72.9z"/>
	<path class="st2" d="M135.1,125.6c2.4,0.7,4.5,1.8,6.3,3.4l3.2-2.6c1.5,1.4,2.8,3,3.9,4.7l-3.2,2.6c1.2,2.1,1.9,4.4,2.1,6.9
		l4.1,0.4c0,1,0,2-0.1,3.1c-0.1,1-0.3,2.1-0.5,3l-4.1-0.4c-0.7,2.4-1.8,4.5-3.4,6.3l2.6,3.2c-1.4,1.5-3,2.8-4.7,3.9l-2.6-3.2
		c-2.1,1.2-4.4,1.9-6.9,2.1l-0.4,4.1c-1,0-2,0-3.1-0.1c-1-0.1-2.1-0.3-3-0.5l0.4-4.1c-2.4-0.7-4.5-1.8-6.3-3.4l-3.2,2.6
		c-1.5-1.4-2.8-3-3.9-4.7l3.2-2.6c-1.2-2.1-1.9-4.4-2.1-6.9l-4.1-0.4c0-1,0-2,0.1-3.1c0.1-1,0.3-2.1,0.5-3l4.1,0.4
		c0.7-2.4,1.8-4.5,3.4-6.3l-2.6-3.2c1.4-1.5,3-2.8,4.7-3.9l2.6,3.2c2.1-1.2,4.4-1.9,6.9-2.1l0.4-4.1c1-0.1,2,0,3.1,0.1
		c1,0.1,2.1,0.3,3,0.5L135.1,125.6L135.1,125.6z M131.4,131.5c-5.8-0.6-11,3.7-11.6,9.5c-0.6,5.8,3.7,11,9.5,11.6
		c5.8,0.6,11-3.7,11.6-9.5C141.5,137.3,137.2,132.1,131.4,131.5z"/>
	<path class="st3" d="M128.2,100.9c1.3,0.2,2.4,0.7,3.5,1.4l1.5-1.5c0.9,0.6,1.6,1.4,2.3,2.3l-1.5,1.5c0.7,1,1.2,2.2,1.4,3.5h2.1
		c0.1,0.5,0.1,1.1,0.1,1.6c0,0.5,0,1.1-0.1,1.6h-2.1c-0.2,1.3-0.7,2.4-1.4,3.5l1.5,1.5c-0.6,0.9-1.4,1.6-2.3,2.3l-1.5-1.5
		c-1,0.7-2.2,1.2-3.5,1.4v2.1c-0.5,0.1-1.1,0.1-1.6,0.1c-0.5,0-1.1,0-1.6-0.1v-2.1c-1.3-0.2-2.4-0.7-3.5-1.4l-1.5,1.5
		c-0.9-0.6-1.6-1.4-2.3-2.3l1.5-1.5c-0.7-1-1.2-2.2-1.4-3.5h-2.1c-0.1-0.5-0.1-1.1-0.1-1.6c0-0.5,0-1.1,0.1-1.6h2.1
		c0.2-1.3,0.7-2.4,1.4-3.5l-1.5-1.5c0.6-0.9,1.4-1.6,2.3-2.3l1.5,1.5c1-0.7,2.2-1.2,3.5-1.4v-2.1c0.5-0.1,1.1-0.1,1.6-0.1
		c0.5,0,1.1,0,1.6,0.1V100.9L128.2,100.9z M126.6,102.2c-4.2,0-7.5,3.4-7.5,7.5c0,4.2,3.4,7.5,7.5,7.5c4.2,0,7.5-3.4,7.5-7.5
		C134.1,105.5,130.7,102.2,126.6,102.2z"/>
	<path class="st5" d="M186.2,249.2l3.5,1.1c0.8,0.3,1.2,1.1,0.9,1.9l-1.1,3.5c1.6,0.9,3,2.1,4.1,3.5l3.3-1.7c0.7-0.4,1.6-0.1,2,0.6
		l1.7,3.3c0.4,0.7,0.1,1.6-0.6,2l-3.3,1.7c0.5,1.7,0.6,3.6,0.4,5.4l3.5,1.1c0.8,0.3,1.2,1.1,0.9,1.9l-1.1,3.5
		c-0.3,0.8-1.1,1.2-1.9,0.9l-3.5-1.1c-0.9,1.6-2.1,3-3.5,4.1l1.7,3.3c0.4,0.7,0.1,1.6-0.6,2l-3.3,1.7c-0.7,0.4-1.6,0.1-2-0.6
		l-1.7-3.3c-1.7,0.5-3.6,0.6-5.4,0.4L179,288c-0.3,0.8-1.1,1.2-1.9,0.9l-3.5-1.1c-0.8-0.3-1.2-1.1-0.9-1.9l1.1-3.5
		c-1.6-0.9-3-2.1-4.1-3.5l-3.3,1.7c-0.7,0.4-1.6,0.1-2-0.6l-1.7-3.3c-0.4-0.7-0.1-1.6,0.6-2l3.3-1.7c-0.5-1.7-0.6-3.6-0.4-5.4
		l-3.5-1.1c-0.8-0.3-1.2-1.1-0.9-1.9l1.1-3.5c0.3-0.8,1.1-1.2,1.9-0.9l3.5,1.1c0.9-1.6,2.1-3,3.5-4.1l-1.7-3.3
		c-0.4-0.7-0.1-1.6,0.6-2l3.3-1.7c0.7-0.4,1.6-0.1,2,0.6l1.7,3.3c1.7-0.5,3.6-0.6,5.4-0.4l1.1-3.5
		C184.6,249.4,185.4,248.9,186.2,249.2L186.2,249.2z M183.6,263.2c-3.2-1.1-6.7,0.7-7.7,3.9c-1.1,3.2,0.7,6.7,3.9,7.7
		c3.2,1.1,6.7-0.7,7.7-3.9C188.6,267.7,186.8,264.3,183.6,263.2z"/>
	<path class="st5" d="M226.6,57.2c1.7,0.1,3.3,0.4,4.8,1l0.7-1.7c0.1-0.3,0.5-0.5,0.8-0.3l1.3,0.5c0.3,0.1,0.5,0.5,0.3,0.8l-0.7,1.7
		c1.5,0.7,2.8,1.7,4.1,2.7l1.3-1.3c0.2-0.2,0.6-0.2,0.9,0l1,1c0.2,0.2,0.2,0.6,0,0.9l-1.3,1.3c1.1,1.2,2,2.6,2.7,4.1l1.7-0.7
		c0.3-0.1,0.7,0,0.8,0.3l0.5,1.3c0.1,0.3,0,0.7-0.3,0.8l-1.7,0.7c0.5,1.5,0.8,3.1,1,4.8h1.8c0.3,0,0.6,0.3,0.6,0.6v1.4
		c0,0.3-0.3,0.6-0.6,0.6h-1.8c-0.1,1.7-0.4,3.3-1,4.8l1.7,0.7c0.3,0.1,0.5,0.5,0.3,0.8l-0.5,1.3c-0.1,0.3-0.5,0.5-0.8,0.3l-1.7-0.7
		c-0.7,1.5-1.7,2.8-2.7,4.1l1.3,1.3c0.2,0.2,0.2,0.6,0,0.9l-1,1c-0.2,0.2-0.6,0.2-0.9,0l-1.3-1.3c-1.2,1.1-2.6,2-4.1,2.7l0.7,1.7
		c0.1,0.3,0,0.7-0.3,0.8l-1.3,0.5c-0.3,0.1-0.7,0-0.8-0.3l-0.7-1.7c-1.5,0.5-3.1,0.8-4.8,1v1.8c0,0.3-0.3,0.6-0.6,0.6h-1.4
		c-0.3,0-0.6-0.3-0.6-0.6v-1.8c-1.7-0.1-3.3-0.4-4.8-1l-0.7,1.7c-0.1,0.3-0.5,0.5-0.8,0.3l-1.3-0.5c-0.3-0.1-0.5-0.5-0.3-0.8
		l0.7-1.7c-1.5-0.7-2.8-1.7-4.1-2.7l-1.3,1.3c-0.2,0.2-0.6,0.2-0.9,0l-1-1c-0.2-0.2-0.2-0.6,0-0.9l1.3-1.3c-1.1-1.2-2-2.6-2.7-4.1
		l-1.7,0.7c-0.3,0.1-0.7,0-0.8-0.3l-0.5-1.3c-0.1-0.3,0-0.7,0.3-0.8l1.7-0.7c-0.5-1.5-0.8-3.1-1-4.8h-1.8c-0.3,0-0.6-0.3-0.6-0.6
		v-1.4c0-0.3,0.3-0.6,0.6-0.6h1.8c0.1-1.7,0.4-3.3,1-4.8l-1.7-0.7c-0.3-0.1-0.5-0.5-0.3-0.8l0.5-1.3c0.1-0.3,0.5-0.5,0.8-0.3
		l1.7,0.7c0.7-1.5,1.7-2.8,2.7-4.1l-1.3-1.3c-0.2-0.2-0.2-0.6,0-0.9l1-1c0.2-0.2,0.6-0.2,0.9,0l1.3,1.3c1.2-1.1,2.6-2,4.1-2.7
		l-0.7-1.7c-0.1-0.3,0-0.7,0.3-0.8l1.3-0.5c0.3-0.1,0.7,0,0.8,0.3l0.7,1.7c1.5-0.5,3.1-0.8,4.8-1v-1.8c0-0.3,0.3-0.6,0.6-0.6h1.4
		c0.3,0,0.6,0.3,0.6,0.6V57.2L226.6,57.2z M225.3,63.3c-7.2,0-13.1,5.9-13.1,13.1c0,7.2,5.9,13.1,13.1,13.1
		c7.2,0,13.1-5.9,13.1-13.1C238.4,69.2,232.5,63.3,225.3,63.3z"/>
	<path class="st5" d="M174.7,131.7h3.6c0.9,0,1.6,0.7,1.6,1.6v2.6c1.4,0.2,2.8,0.4,4.2,0.8l1-2.4c0.3-0.8,1.2-1.2,2-0.8l3.3,1.4
		c0.8,0.3,1.2,1.2,0.8,2l-1,2.4c1.2,0.7,2.4,1.5,3.6,2.4l1.8-1.8c0.6-0.6,1.6-0.6,2.2,0l2.5,2.5c0.6,0.6,0.6,1.6,0,2.2l-1.8,1.8
		c0.9,1.1,1.7,2.3,2.4,3.5l2.4-1c0.8-0.3,1.7,0.1,2,0.8l1.4,3.3c0.3,0.8-0.1,1.7-0.8,2l-2.4,1c0.4,1.4,0.7,2.8,0.8,4.2h2.6
		c0.9,0,1.6,0.7,1.6,1.6v3.6c0,0.9-0.7,1.6-1.6,1.6h-2.6c-0.2,1.4-0.4,2.8-0.8,4.2l2.4,1c0.8,0.3,1.2,1.2,0.8,2l-1.4,3.3
		c-0.3,0.8-1.2,1.2-2,0.8l-2.4-1c-0.7,1.2-1.5,2.4-2.4,3.6l1.8,1.8c0.6,0.6,0.6,1.6,0,2.2l-2.5,2.5c-0.6,0.6-1.6,0.6-2.2,0l-1.8-1.8
		c-1.1,0.9-2.3,1.7-3.5,2.4l1,2.4c0.3,0.8-0.1,1.7-0.8,2l-3.3,1.4c-0.8,0.3-1.7,0-2-0.8l-1-2.4c-1.4,0.4-2.8,0.7-4.2,0.8v2.6
		c0,0.9-0.7,1.6-1.6,1.6h-3.6c-0.9,0-1.6-0.7-1.6-1.6v-2.6c-1.4-0.2-2.8-0.4-4.2-0.8l-1,2.4c-0.3,0.8-1.2,1.2-2,0.8l-3.3-1.4
		c-0.8-0.3-1.2-1.2-0.8-2l1-2.4c-1.2-0.7-2.4-1.5-3.6-2.4l-1.8,1.8c-0.6,0.6-1.6,0.6-2.2,0l-2.5-2.5c-0.6-0.6-0.6-1.6,0-2.2l1.8-1.8
		c-0.9-1.1-1.7-2.3-2.4-3.5l-2.4,1c-0.8,0.3-1.7-0.1-2-0.8l-1.4-3.3c-0.3-0.8,0.1-1.7,0.8-2l2.4-1c-0.4-1.4-0.7-2.8-0.8-4.2h-2.6
		c-0.9,0-1.6-0.7-1.6-1.6v-3.6c0-0.9,0.7-1.6,1.6-1.6h2.6c0.2-1.4,0.4-2.8,0.8-4.2l-2.4-1c-0.8-0.3-1.2-1.2-0.8-2l1.4-3.3
		c0.3-0.8,1.2-1.2,2-0.8l2.4,1c0.7-1.2,1.5-2.4,2.4-3.6l-1.8-1.8c-0.6-0.6-0.6-1.6,0-2.2l2.5-2.5c0.6-0.6,1.6-0.6,2.2,0l1.8,1.8
		c1.1-0.9,2.3-1.7,3.5-2.4l-1-2.4c-0.3-0.8,0.1-1.7,0.8-2l3.3-1.4c0.8-0.3,1.7,0.1,2,0.8l1,2.4c1.4-0.4,2.8-0.7,4.2-0.8v-2.6
		C173.2,132.4,173.9,131.7,174.7,131.7L174.7,131.7z M176.5,148.4c-8.4,0-15.2,6.8-15.2,15.2c0,8.4,6.8,15.2,15.2,15.2
		c8.4,0,15.2-6.8,15.2-15.2C191.7,155.2,184.9,148.4,176.5,148.4L176.5,148.4z M176.5,150.8c-7,0-12.7,5.7-12.7,12.7
		c0,7,5.7,12.7,12.7,12.7c7,0,12.7-5.7,12.7-12.7C189.2,156.5,183.5,150.8,176.5,150.8L176.5,150.8z M176.5,145.5
		c-10,0-18.1,8.1-18.1,18.1c0,10,8.1,18.1,18.1,18.1c10,0,18.1-8.1,18.1-18.1C194.6,153.6,186.5,145.5,176.5,145.5z"/>
	<path class="st4" d="M133.6,163.9l-0.1,1.6c-0.3,0-0.5,0-0.8,0.1l-0.3-1.6l-0.5,0.1l0.1,1.6c-0.2,0-0.4,0.1-0.7,0.1l-0.5-1.5
		l-0.5,0.1l0.3,1.6c-0.3,0.1-0.5,0.2-0.8,0.3l-0.7-1.4l-0.5,0.2l0.5,1.5c-0.2,0.1-0.4,0.2-0.6,0.3l-0.9-1.3l-0.4,0.3l0.7,1.4
		c-0.2,0.1-0.5,0.3-0.7,0.5l-1.1-1.2l-0.4,0.3l0.9,1.3c-0.2,0.1-0.3,0.3-0.5,0.4l-1.2-1.1l-0.4,0.4l1.1,1.2
		c-0.2,0.2-0.4,0.4-0.5,0.6l-1.3-0.9l-0.3,0.4l1.2,1c-0.1,0.2-0.3,0.4-0.4,0.6L123,170l-0.3,0.4l1.3,0.9c-0.1,0.2-0.2,0.5-0.4,0.7
		l-1.5-0.5l-0.2,0.5l1.5,0.7c-0.1,0.2-0.1,0.4-0.2,0.6l-1.6-0.3l-0.1,0.5l1.5,0.5c-0.1,0.3-0.1,0.5-0.2,0.8l-1.6-0.1l-0.1,0.5
		l1.6,0.3c0,0.2,0,0.4,0,0.7l-1.6,0.1v0.5l1.6,0.1c0,0.3,0,0.5,0.1,0.8l-1.6,0.3l0.1,0.5l1.6-0.1c0,0.2,0.1,0.4,0.1,0.7l-1.5,0.5
		l0.1,0.5l1.6-0.3c0.1,0.3,0.2,0.5,0.3,0.8l-1.4,0.7l0.2,0.5l1.5-0.5c0.1,0.2,0.2,0.4,0.3,0.6l-1.3,0.9l0.3,0.4l1.4-0.7
		c0.1,0.2,0.3,0.5,0.5,0.7l-1.2,1.1l0.3,0.4l1.3-0.9c0.1,0.2,0.3,0.3,0.4,0.5l-1.1,1.2l0.4,0.4l1.2-1.1c0.2,0.2,0.4,0.4,0.6,0.5
		l-0.9,1.3l0.4,0.3l1-1.2c0.2,0.1,0.4,0.3,0.6,0.4l-0.7,1.4l0.4,0.3l0.9-1.3c0.2,0.1,0.5,0.2,0.7,0.4l-0.5,1.5l0.5,0.2l0.7-1.5
		c0.2,0.1,0.4,0.1,0.6,0.2l-0.3,1.6l0.5,0.1l0.5-1.5c0.3,0.1,0.5,0.1,0.8,0.2L132,189l0.5,0.1l0.3-1.6c0.2,0,0.4,0,0.7,0l0.1,1.6
		h0.5l0.1-1.6c0.3,0,0.5,0,0.8-0.1l0.3,1.6l0.5-0.1l-0.1-1.6c0.2,0,0.4-0.1,0.7-0.1l0.5,1.5l0.5-0.1l-0.3-1.6
		c0.3-0.1,0.5-0.2,0.8-0.3l0.7,1.4l0.5-0.2l-0.5-1.5c0.2-0.1,0.4-0.2,0.6-0.3l0.9,1.3l0.4-0.3l-0.7-1.4c0.2-0.1,0.5-0.3,0.7-0.5
		l1.1,1.2l0.4-0.3l-0.9-1.3c0.2-0.1,0.3-0.3,0.5-0.4l1.2,1.1l0.4-0.4l-1.1-1.2c0.2-0.2,0.4-0.4,0.5-0.6l1.3,0.9l0.3-0.4l-1.2-1.1
		c0.1-0.2,0.3-0.4,0.4-0.6l1.4,0.7l0.3-0.4l-1.3-0.9c0.1-0.2,0.2-0.5,0.4-0.7l1.5,0.5l0.2-0.5l-1.5-0.7c0.1-0.2,0.1-0.4,0.2-0.6
		l1.6,0.3l0.1-0.5l-1.5-0.5c0.1-0.3,0.1-0.5,0.2-0.8l1.6,0.1l0.1-0.5l-1.6-0.3c0-0.2,0-0.4,0-0.7l1.6-0.1v-0.5l-1.6-0.1
		c0-0.3,0-0.5-0.1-0.8l1.6-0.3l-0.1-0.5l-1.6,0.1c0-0.2-0.1-0.4-0.1-0.7l1.5-0.5L146,173l-1.6,0.3c-0.1-0.3-0.2-0.5-0.3-0.8l1.4-0.7
		l-0.2-0.5l-1.5,0.5c-0.1-0.2-0.2-0.4-0.3-0.6l1.3-0.9l-0.3-0.4l-1.4,0.7c-0.1-0.2-0.3-0.5-0.5-0.7l1.2-1.1l-0.3-0.4l-1.3,0.9
		c-0.1-0.2-0.3-0.3-0.4-0.5l1.1-1.2l-0.4-0.4l-1.2,1.1c-0.2-0.2-0.4-0.4-0.6-0.5l0.9-1.3l-0.4-0.3l-1,1.2c-0.2-0.1-0.4-0.3-0.6-0.4
		l0.7-1.4l-0.4-0.3l-0.9,1.3c-0.2-0.1-0.5-0.2-0.7-0.4l0.5-1.5l-0.5-0.2l-0.7,1.5c-0.2-0.1-0.4-0.1-0.6-0.2l0.3-1.6l-0.5-0.1
		l-0.5,1.5c-0.3-0.1-0.5-0.1-0.8-0.2l0.1-1.6l-0.5-0.1l-0.3,1.6c-0.2,0-0.4,0-0.7,0l-0.1-1.6H133.6L133.6,163.9z M133.9,169.6
		c0.5,0,0.9,0.4,0.9,0.9c0,0.5-0.4,0.9-0.9,0.9c-0.5,0-0.9-0.4-0.9-0.9C133,170,133.4,169.6,133.9,169.6L133.9,169.6z M139.9,175.6
		c0.5,0,0.9,0.4,0.9,0.9c0,0.5-0.4,0.9-0.9,0.9s-0.9-0.4-0.9-0.9C139,176,139.4,175.6,139.9,175.6L139.9,175.6z M127.9,175.6
		c0.5,0,0.9,0.4,0.9,0.9c0,0.5-0.4,0.9-0.9,0.9s-0.9-0.4-0.9-0.9C127,176,127.4,175.6,127.9,175.6L127.9,175.6z M133.8,181.6
		c0.5,0,0.9,0.4,0.9,0.9c0,0.5-0.4,0.9-0.9,0.9c-0.5,0-0.9-0.4-0.9-0.9C133,182,133.4,181.6,133.8,181.6L133.8,181.6z M133.9,168.5
		c-0.9,0-1.7,0.6-1.9,1.5c-0.7,0.2-1.4,0.6-2.1,1l-1.1-1.1c1.4-1.1,3.2-1.7,5.1-1.7c1.9,0,3.7,0.6,5.1,1.7l-1.1,1.1
		c-0.6-0.5-1.3-0.8-2.1-1C135.6,169.1,134.8,168.5,133.9,168.5L133.9,168.5z M135.8,171.1c0.5,0.2,0.9,0.4,1.3,0.7l-1.5,1.5
		c-0.5-0.3-1.1-0.5-1.8-0.5c-0.7,0-1.3,0.2-1.8,0.5l-1.5-1.5c0.4-0.3,0.9-0.5,1.3-0.7c0.3,0.8,1,1.4,1.9,1.4
		C134.8,172.5,135.5,171.9,135.8,171.1L135.8,171.1z M140.4,174.5c-0.2-0.7-0.6-1.4-1-2l1.1-1.1c1.1,1.4,1.7,3.2,1.7,5.1
		c0,1.9-0.6,3.7-1.7,5.1l-1.1-1.1c0.5-0.6,0.8-1.3,1-2.1c0.9-0.2,1.5-1,1.5-1.9C141.9,175.6,141.2,174.8,140.4,174.5L140.4,174.5z
		 M139.3,178.4c-0.2,0.5-0.4,0.9-0.7,1.4l-1.5-1.5c0.3-0.5,0.5-1.1,0.5-1.8c0-0.7-0.2-1.3-0.5-1.8l1.5-1.5c0.3,0.4,0.5,0.8,0.7,1.3
		c-0.8,0.3-1.4,1-1.4,1.9C137.9,177.4,138.5,178.2,139.3,178.4L139.3,178.4z M128.4,174.6c0.2-0.5,0.4-0.9,0.7-1.3l1.5,1.5
		c-0.3,0.5-0.5,1.1-0.5,1.8c0,0.7,0.2,1.3,0.5,1.8l-1.5,1.5c-0.3-0.4-0.5-0.9-0.7-1.4c0.8-0.2,1.4-1,1.4-1.9
		C129.9,175.6,129.3,174.8,128.4,174.6L128.4,174.6z M127.3,178.4c0.2,0.8,0.6,1.5,1,2.1l-1.1,1.1c-1.1-1.4-1.7-3.2-1.7-5.1
		c0-1.9,0.6-3.7,1.7-5.1l1.1,1.1c-0.4,0.6-0.8,1.3-1,2c-0.9,0.2-1.5,1-1.5,1.9C125.9,177.4,126.5,178.2,127.3,178.4L127.3,178.4z
		 M133.8,180.5c-0.9,0-1.7,0.6-1.9,1.4c-0.5-0.2-0.9-0.4-1.3-0.7l1.5-1.5c0.5,0.3,1.1,0.5,1.8,0.5c0.7,0,1.3-0.2,1.8-0.5l1.5,1.5
		c-0.4,0.3-0.9,0.5-1.4,0.7C135.5,181.1,134.7,180.5,133.8,180.5L133.8,180.5z M135.8,183c0.8-0.2,1.5-0.6,2.1-1l1.1,1.1
		c-1.4,1.1-3.2,1.7-5.1,1.7c-1.9,0-3.7-0.6-5.1-1.7l1.1-1.1c0.6,0.4,1.3,0.8,2,1c0.2,0.9,1,1.5,1.9,1.5
		C134.8,184.5,135.5,183.9,135.8,183L135.8,183z M133.9,175.1c0.8,0,1.4,0.6,1.4,1.4c0,0.8-0.6,1.4-1.4,1.4c-0.8,0-1.4-0.6-1.4-1.4
		C132.4,175.7,133.1,175.1,133.9,175.1z"/>
	<path class="st2" d="M194,193.1h1.1l0.2,3.4c0.5,0,0.9,0,1.4,0.1l0.6-3.4l1.1,0.1l-0.2,3.4c0.6,0.1,1.1,0.2,1.7,0.3l1.1-3.2l1,0.3
		l-0.7,3.3c0.5,0.1,0.9,0.3,1.3,0.4l1.5-3.1l1,0.4l-1.1,3.2c0.5,0.2,1,0.5,1.5,0.8l1.9-2.9l0.9,0.5l-1.5,3.1
		c0.4,0.2,0.8,0.5,1.2,0.8l2.2-2.6l0.9,0.7l-1.9,2.8c0.4,0.4,0.9,0.7,1.3,1.1l2.6-2.3l0.8,0.8l-2.3,2.6c0.3,0.3,0.6,0.7,0.9,1.1
		l2.8-1.9l0.7,0.9l-2.6,2.3c0.3,0.5,0.7,0.9,1,1.4l3.1-1.5l0.5,0.9l-2.9,1.9c0.2,0.4,0.4,0.8,0.6,1.3l3.2-1.1l0.4,1l-3.1,1.5
		c0.2,0.5,0.4,1.1,0.6,1.6l3.3-0.7l0.3,1l-3.2,1.1c0.1,0.5,0.2,0.9,0.3,1.4l3.4-0.3l0.1,1.1l-3.4,0.7c0.1,0.6,0.1,1.1,0.1,1.7
		l3.4,0.2v1.1l-3.4,0.2c0,0.5,0,0.9-0.1,1.4l3.4,0.6l-0.1,1.1l-3.4-0.2c-0.1,0.6-0.2,1.1-0.3,1.7l3.2,1.1l-0.3,1l-3.3-0.7
		c-0.1,0.5-0.3,0.9-0.4,1.3l3.1,1.5l-0.4,1l-3.2-1.1c-0.2,0.5-0.5,1-0.8,1.5l2.9,1.9l-0.5,0.9l-3.1-1.5c-0.2,0.4-0.5,0.8-0.8,1.2
		l2.6,2.2l-0.7,0.9l-2.8-1.9c-0.4,0.4-0.7,0.9-1.1,1.3l2.3,2.6l-0.8,0.8l-2.6-2.3c-0.3,0.3-0.7,0.6-1.1,0.9l1.9,2.8l-0.9,0.7
		l-2.3-2.6c-0.5,0.3-0.9,0.7-1.4,1l1.5,3.1l-0.9,0.5l-1.9-2.9c-0.4,0.2-0.8,0.4-1.3,0.6l1.1,3.2l-1,0.4l-1.5-3.1
		c-0.5,0.2-1.1,0.4-1.6,0.6l0.7,3.3l-1,0.3l-1.1-3.2c-0.5,0.1-0.9,0.2-1.4,0.3l0.3,3.4l-1.1,0.1l-0.7-3.4c-0.6,0.1-1.1,0.1-1.7,0.1
		l-0.2,3.4H194l-0.2-3.4c-0.5,0-0.9,0-1.4-0.1l-0.6,3.4l-1.1-0.1l0.2-3.4c-0.6-0.1-1.1-0.2-1.7-0.3l-1.1,3.2l-1-0.3l0.7-3.3
		c-0.5-0.1-0.9-0.3-1.3-0.4l-1.5,3.1l-1-0.4l1.1-3.2c-0.5-0.2-1-0.5-1.5-0.8l-1.9,2.9l-0.9-0.5l1.5-3.1c-0.4-0.2-0.8-0.5-1.2-0.8
		l-2.2,2.6l-0.9-0.7l1.9-2.8c-0.4-0.4-0.9-0.7-1.3-1.1l-2.6,2.3l-0.8-0.8l2.3-2.6c-0.3-0.3-0.6-0.7-0.9-1.1l-2.8,1.9l-0.7-0.9
		l2.6-2.3c-0.3-0.5-0.7-0.9-1-1.4l-3.1,1.5l-0.5-0.9l2.9-1.9c-0.2-0.4-0.4-0.8-0.6-1.3l-3.2,1.1l-0.4-1l3.1-1.5
		c-0.2-0.5-0.4-1.1-0.6-1.6l-3.3,0.7l-0.3-1l3.2-1.1c-0.1-0.5-0.2-0.9-0.3-1.4l-3.4,0.3l-0.1-1.1l3.4-0.7c-0.1-0.6-0.1-1.1-0.1-1.7
		l-3.4-0.2v-1.1l3.4-0.2c0-0.5,0-0.9,0.1-1.4l-3.4-0.6l0.1-1.1l3.4,0.2c0.1-0.6,0.2-1.1,0.3-1.7l-3.2-1.1l0.3-1l3.3,0.7
		c0.1-0.5,0.3-0.9,0.4-1.3l-3.1-1.5l0.4-1l3.2,1.1c0.2-0.5,0.5-1,0.8-1.5l-2.9-1.9l0.5-0.9l3.1,1.5c0.2-0.4,0.5-0.8,0.8-1.2
		l-2.6-2.2l0.7-0.9l2.8,1.9c0.4-0.4,0.7-0.9,1.1-1.3l-2.3-2.6l0.8-0.8l2.6,2.3c0.3-0.3,0.7-0.6,1.1-0.9l-1.9-2.8l0.9-0.7l2.3,2.6
		c0.5-0.3,0.9-0.7,1.4-1l-1.5-3.1l0.9-0.5l1.9,2.9c0.4-0.2,0.8-0.4,1.3-0.6l-1.1-3.2l1-0.4l1.5,3.1c0.5-0.2,1.1-0.4,1.6-0.6
		l-0.7-3.3l1-0.3l1.1,3.2c0.5-0.1,0.9-0.2,1.4-0.3l-0.3-3.4l1.1-0.1l0.7,3.4c0.6-0.1,1.1-0.1,1.7-0.1L194,193.1L194,193.1z
		 M195,198.5v1.7c5.1,0.1,9.7,2.2,13.2,5.5l1.2-1.2C205.6,200.8,200.6,198.6,195,198.5L195,198.5z M194.1,200.2v-1.7
		c-5.6,0.1-10.6,2.4-14.4,6l1.2,1.2C184.3,202.4,189,200.3,194.1,200.2L194.1,200.2z M209.4,235.4l-1.2-1.2
		c-3.4,3.3-8.1,5.3-13.2,5.5v1.7C200.6,241.2,205.6,239,209.4,235.4L209.4,235.4z M208.8,233.5l1.2,1.2c3.6-3.8,5.8-8.8,6-14.4h-1.7
		C214.1,225.5,212.1,230.1,208.8,233.5L208.8,233.5z M180.3,206.3l-1.2-1.2c-3.6,3.8-5.8,8.8-6,14.4h1.7
		C174.9,214.3,177,209.7,180.3,206.3L180.3,206.3z M214.2,219.5h1.7c-0.1-5.6-2.4-10.6-6-14.4l-1.2,1.2
		C212.1,209.7,214.1,214.3,214.2,219.5L214.2,219.5z M174.8,220.4h-1.7c0.1,5.6,2.4,10.6,6,14.4l1.2-1.2
		C177,230.1,174.9,225.5,174.8,220.4L174.8,220.4z M194.1,241.4v-1.7c-5.1-0.1-9.7-2.2-13.2-5.5l-1.2,1.2
		C183.4,239,188.5,241.2,194.1,241.4L194.1,241.4z M194.5,215.7c-2.3,0-4.2,1.9-4.2,4.2c0,2.3,1.9,4.2,4.2,4.2s4.2-1.9,4.2-4.2
		C198.7,217.6,196.9,215.7,194.5,215.7L194.5,215.7z M178.8,219.6h7.8c0.1-1.9,0.8-3.7,2-5l-5.5-5.5
		C180.5,211.8,178.9,215.5,178.8,219.6L178.8,219.6z M202.4,219.6h7.8c-0.1-4.1-1.7-7.8-4.3-10.5l-5.5,5.5
		C201.6,215.9,202.4,217.7,202.4,219.6L202.4,219.6z M210.2,220.2h-7.8c-0.1,1.9-0.8,3.7-2,5l5.5,5.5
		C208.5,228,210.1,224.3,210.2,220.2L210.2,220.2z M186.6,220.2h-7.8c0.1,4.1,1.7,7.8,4.3,10.5l5.5-5.5
		C187.5,223.9,186.7,222.1,186.6,220.2L186.6,220.2z M194.8,204.2v7.8c1.9,0.1,3.7,0.8,5,2l5.5-5.5
		C202.6,205.9,198.9,204.3,194.8,204.2L194.8,204.2z M194.8,227.8v7.8c4.1-0.1,7.8-1.7,10.5-4.3l-5.5-5.5
		C198.5,227,196.8,227.7,194.8,227.8L194.8,227.8z M194.2,235.6v-7.8c-1.9-0.1-3.7-0.8-5-2l-5.5,5.5
		C186.5,233.9,190.1,235.5,194.2,235.6L194.2,235.6z M194.2,212v-7.8c-4.1,0.1-7.8,1.7-10.5,4.3l5.5,5.5
		C190.5,212.8,192.3,212.1,194.2,212L194.2,212z M181.5,206.3l2,2c2.9-2.8,6.8-4.4,11.1-4.4s8.2,1.7,11.1,4.4l2-2
		c-3.4-3.3-8-5.3-13.1-5.3S184.8,203,181.5,206.3L181.5,206.3z M206.2,231l2,2c3.3-3.4,5.3-8,5.3-13.1c0-5.1-2-9.7-5.3-13.1l-2,2
		c2.8,2.9,4.4,6.8,4.4,11.1C210.6,224.2,209,228.1,206.2,231L206.2,231z M207.6,233.5l-2-2c-2.9,2.8-6.8,4.4-11.1,4.4
		s-8.2-1.7-11.1-4.4l-2,2c3.4,3.3,8,5.3,13.1,5.3S204.2,236.8,207.6,233.5L207.6,233.5z M182.9,208.8l-2-2c-3.3,3.4-5.3,8-5.3,13.1
		c0,5.1,2,9.7,5.3,13.1l2-2c-2.8-2.9-4.4-6.8-4.4-11.1C178.4,215.6,180.1,211.7,182.9,208.8z"/>
	<path class="st2" d="M247.9,87.3l0.5,0.1c0.6,0.1,1,0.6,1,1.3l-0.2,1.4c0.6,0.2,1.2,0.6,1.8,1l1.1-0.9c0.4-0.3,1-0.3,1.4,0l0,0
		l0.2,0.2l0,0l0.3,0.4l0,0l0.2,0.2l0,0c0.2,0.5,0.1,1-0.3,1.4l-1.1,0.9c0.3,0.6,0.5,1.3,0.5,2l1.4,0.2c0.6,0.1,1,0.6,1,1.3l-0.1,0.5
		c-0.1,0.6-0.6,1-1.3,1l-1.4-0.2c-0.2,0.6-0.6,1.2-1,1.8l0.9,1.1c0.3,0.4,0.3,1,0,1.4l0,0l-0.8,0.6l0,0c-0.5,0.2-1,0.1-1.4-0.3
		l-0.9-1.1c-0.6,0.3-1.3,0.5-2,0.5l-0.2,1.4c-0.1,0.6-0.6,1-1.3,1l-0.5-0.1c-0.6-0.1-1-0.6-1-1.3l0.2-1.4c-0.6-0.2-1.2-0.6-1.8-1
		l-1.1,0.9c-0.4,0.3-1,0.3-1.4,0l0,0l-0.2-0.2l-0.3-0.4l-0.2-0.2l0,0c-0.2-0.5-0.1-1,0.3-1.4l1.1-0.9c-0.3-0.6-0.5-1.3-0.5-2
		l-1.4-0.2c-0.6-0.1-1-0.6-1-1.3l0.1-0.5c0.1-0.6,0.6-1,1.3-1l1.4,0.2c0.2-0.6,0.6-1.2,1-1.8l-0.9-1.1c-0.3-0.3-0.3-0.8-0.1-1.1
		c0.1-0.2,0.3-0.4,0.6-0.6c0.5-0.4,1.3-0.6,1.8,0l0.9,1.1c0.6-0.3,1.3-0.5,2-0.5l0.2-1.4C246.8,87.7,247.3,87.3,247.9,87.3
		L247.9,87.3z M247.4,93.5c-1.3-0.2-2.5,0.7-2.7,2c-0.2,1.3,0.7,2.5,2,2.7c1.3,0.2,2.5-0.7,2.7-2C249.6,94.8,248.7,93.7,247.4,93.5
		L247.4,93.5z M247.6,92.3c0.8,0.1,1.5,0.5,2,1l0.9-0.7c-0.7-0.7-1.7-1.3-2.8-1.4c-1.1-0.1-2.2,0.1-3,0.6l0.7,0.9
		C246,92.3,246.8,92.2,247.6,92.3L247.6,92.3z M250.2,94.1c0.4,0.7,0.5,1.4,0.4,2.2c-0.1,0.8-0.5,1.5-1,2l0.7,0.9
		c0.7-0.7,1.3-1.7,1.4-2.8c0.1-1.1-0.1-2.2-0.6-3L250.2,94.1L250.2,94.1z M248.9,99c-0.7,0.4-1.4,0.5-2.2,0.4s-1.5-0.5-2-1l-0.9,0.7
		c0.7,0.7,1.7,1.3,2.8,1.4c1.1,0.1,2.2-0.1,3-0.6L248.9,99L248.9,99z M244,97.6c-0.4-0.7-0.5-1.4-0.4-2.2c0.1-0.8,0.5-1.5,1-2
		l-0.7-0.9c-0.7,0.7-1.3,1.7-1.4,2.8c-0.1,1.1,0.1,2.2,0.6,3L244,97.6z"/>
	<path class="st3" d="M235.1,158.9v2.1c0,2.5-2,4.5-4.5,4.5c-2.5,0-4.5-2-4.5-4.5v-2.1c-3.6,0.6-6.9,2-9.9,4.1l1.5,1.5
		c1.7,1.7,1.7,4.6,0,6.4c-1.7,1.7-4.6,1.7-6.4,0l-1.5-1.5c-2.1,3-3.5,6.4-4.1,9.9h2.1c2.5,0,4.5,2,4.5,4.5s-2,4.5-4.5,4.5h-2.1
		c0.6,3.6,2,6.9,4.1,9.9l1.5-1.5c1.7-1.7,4.6-1.7,6.4,0c1.7,1.7,1.7,4.6,0,6.4l-1.5,1.5c3,2.1,6.3,3.5,9.9,4.1v-2.1
		c0-2.5,2-4.5,4.5-4.5c2.5,0,4.5,2,4.5,4.5v2.1c3.6-0.6,6.9-2,9.9-4.1l-1.5-1.5c-1.7-1.7-1.7-4.6,0-6.4c1.7-1.7,4.6-1.7,6.4,0
		l1.5,1.5c2.1-3,3.5-6.3,4.1-9.9h-2.1c-2.5,0-4.5-2-4.5-4.5s2-4.5,4.5-4.5h2.1c-0.6-3.6-2-6.9-4.1-9.9l-1.5,1.5
		c-1.7,1.7-4.6,1.7-6.4,0c-1.7-1.7-1.7-4.6,0-6.4l1.5-1.5C242,160.9,238.6,159.5,235.1,158.9L235.1,158.9z M230.6,170
		c7.6,0,13.7,6.1,13.7,13.7c0,7.6-6.1,13.7-13.7,13.7c-7.6,0-13.7-6.1-13.7-13.7C216.8,176.1,223,170,230.6,170L230.6,170z
		 M249.2,191.4c-0.5,1.3-2.1,1.9-3.4,1.4c-1.3-0.5-1.9-2.1-1.4-3.4c0.5-1.3,2.1-1.9,3.4-1.4C249.1,188.6,249.8,190.1,249.2,191.4
		L249.2,191.4z M216.7,178c-0.5,1.3-2.1,1.9-3.4,1.4c-1.3-0.5-1.9-2.1-1.4-3.4c0.5-1.3,2.1-1.9,3.4-1.4
		C216.6,175.1,217.2,176.7,216.7,178L216.7,178z M249.2,176c0.5,1.3-0.1,2.8-1.4,3.4c-1.3,0.5-2.8-0.1-3.4-1.4
		c-0.5-1.3,0.1-2.8,1.4-3.4C247.2,174,248.7,174.7,249.2,176L249.2,176z M216.7,189.5c0.5,1.3-0.1,2.8-1.4,3.4
		c-1.3,0.5-2.8-0.1-3.4-1.4c-0.5-1.3,0.1-2.8,1.4-3.4C214.6,187.5,216.2,188.1,216.7,189.5L216.7,189.5z M238.3,165.1
		c1.3,0.5,1.9,2.1,1.4,3.4c-0.5,1.3-2.1,1.9-3.4,1.4c-1.3-0.5-1.9-2.1-1.4-3.4C235.5,165.2,237,164.5,238.3,165.1L238.3,165.1z
		 M224.8,197.6c1.3,0.5,1.9,2.1,1.4,3.4c-0.5,1.3-2.1,1.9-3.4,1.4c-1.3-0.5-1.9-2.1-1.4-3.4C222,197.7,223.5,197,224.8,197.6
		L224.8,197.6z M222.8,165.1c1.3-0.5,2.8,0.1,3.4,1.4c0.5,1.3-0.1,2.8-1.4,3.4c-1.3,0.5-2.8-0.1-3.4-1.4
		C220.9,167.1,221.5,165.6,222.8,165.1L222.8,165.1z M236.3,197.6c1.3-0.5,2.8,0.1,3.4,1.4c0.5,1.3-0.1,2.8-1.4,3.4
		c-1.3,0.5-2.8-0.1-3.4-1.4C234.4,199.7,235,198.1,236.3,197.6z"/>
	<path class="st3" d="M271.4,90l3,0l0.8,4.3c1.4,0.2,2.8,0.6,4,1.1l2.8-3.3l2.6,1.5l-1.4,4.1c1.1,0.9,2.1,1.8,3,2.9l4.1-1.5l1.5,2.6
		l-3.3,2.8c0.5,1.3,0.9,2.6,1.1,4l4.3,0.8l0,3l-4.3,0.8c-0.2,1.4-0.6,2.8-1.1,4l3.3,2.8l-1.5,2.6l-4.1-1.4c-0.9,1.1-1.8,2.1-2.9,3
		l1.5,4.1l-2.6,1.5l-2.8-3.3c-1.3,0.5-2.6,0.9-4,1.1l-0.8,4.3l-3,0l-0.8-4.3c-1.4-0.2-2.8-0.6-4-1.1l-2.8,3.3l-2.6-1.5l1.4-4.1
		c-1.1-0.9-2.1-1.8-3-2.9l-4.1,1.5l-1.5-2.6l3.3-2.8c-0.5-1.3-0.9-2.6-1.1-4l-4.3-0.8l0-3l4.3-0.8c0.2-1.4,0.6-2.8,1.1-4l-3.3-2.8
		l1.5-2.6l4.1,1.4c0.9-1.1,1.8-2.1,2.9-3l-1.5-4.1l2.6-1.5l2.8,3.3c1.3-0.5,2.6-0.9,4-1.1L271.4,90L271.4,90z M283.6,102l-2.6,2.6
		c1.4,1.7,2.2,3.9,2.2,6.3c0,2.4-0.8,4.7-2.2,6.4l2.6,2.6c2.1-2.4,3.3-5.6,3.3-9.1C286.9,107.5,285.7,104.4,283.6,102L283.6,102z
		 M279.3,102.9l2.6-2.6c-2.4-2.1-5.6-3.3-9.1-3.3c-3.5,0-6.6,1.3-9.1,3.3l2.6,2.6c1.8-1.4,4-2.3,6.4-2.3
		C275.3,100.7,277.6,101.5,279.3,102.9L279.3,102.9z M266.6,119.1l-2.6,2.6c2.4,2,5.6,3.2,9,3.2c3.4,0,6.5-1.2,9-3.3l-2.6-2.6
		c-1.7,1.4-3.9,2.2-6.3,2.2C270.5,121.3,268.3,120.4,266.6,119.1L266.6,119.1z M262.3,120.1l2.6-2.6c-1.4-1.8-2.3-4-2.3-6.4
		c0-2.4,0.8-4.6,2.2-6.3l-2.6-2.6c-2,2.4-3.2,5.6-3.2,9C258.9,114.5,260.2,117.6,262.3,120.1L262.3,120.1z M272.9,104
		c-3.8,0-7,3.1-7,7c0,3.8,3.1,7,7,7c3.8,0,7-3.1,7-7C279.9,107.1,276.7,104,272.9,104z"/>
	<path class="st4" d="M261.7,67.1c4.5-0.7,8.8,2.3,9.6,6.9c0.7,4.5-2.3,8.8-6.9,9.6c-4.5,0.7-8.8-2.3-9.6-6.9
		C254.1,72.1,257.2,67.9,261.7,67.1L261.7,67.1z M259.3,59.6l-0.1,3.4c-1,0.3-2,0.8-2.9,1.3l-2.6-2.2l-1.8,1.5l1.6,2.9
		c-0.7,0.8-1.4,1.7-1.9,2.6l-3.3-0.6l-0.8,2.2l2.9,1.7c-0.2,1-0.3,2.1-0.3,3.2l-3.2,1.1l0.4,2.3l3.4,0.1c0.3,1,0.8,2,1.3,2.9
		l-2.2,2.6l1.5,1.8l2.9-1.6c0.8,0.7,1.7,1.4,2.6,1.9l-0.6,3.3l2.2,0.8l1.7-2.9c1,0.2,2.1,0.3,3.2,0.3l1.1,3.2l2.3-0.4l0.1-3.4
		c1-0.3,2-0.8,2.9-1.3l2.6,2.2l1.8-1.5l-1.6-2.9c0.7-0.8,1.4-1.7,1.9-2.6l3.3,0.6l0.8-2.2l-2.9-1.7c0.2-1,0.3-2.1,0.3-3.2l3.2-1.1
		l-0.4-2.3l-3.4-0.1c-0.3-1-0.8-2-1.3-2.9l2.2-2.6l-1.5-1.8l-2.9,1.6c-0.8-0.7-1.7-1.4-2.6-1.9l0.6-3.3l-2.2-0.8l-1.7,2.9
		c-1-0.2-2.1-0.3-3.2-0.3l-1.1-3.2L259.3,59.6L259.3,59.6z M261.3,64.7c-5.9,1-9.9,6.5-8.9,12.4c1,5.9,6.5,9.9,12.4,8.9
		c5.9-1,9.9-6.5,8.9-12.4C272.7,67.7,267.2,63.7,261.3,64.7z"/>
	<path class="st2" d="M248.4,55c0.7,0.2,1.4,0.6,1.9,1l1-0.8c0.5,0.4,0.9,0.9,1.2,1.4l-1,0.8c0.3,0.6,0.6,1.3,0.6,2.1l1.2,0.1
		c0,0.3,0,0.6,0,0.9c0,0.3-0.1,0.6-0.2,0.9l-1.2-0.1c-0.2,0.7-0.6,1.4-1,1.9l0.8,1c-0.4,0.5-0.9,0.9-1.4,1.2l-0.8-1
		c-0.6,0.3-1.3,0.6-2.1,0.6l-0.1,1.2c-0.3,0-0.6,0-0.9,0c-0.3,0-0.6-0.1-0.9-0.2l0.1-1.2c-0.7-0.2-1.4-0.6-1.9-1l-1,0.8
		c-0.5-0.4-0.9-0.9-1.2-1.4l1-0.8c-0.3-0.6-0.6-1.3-0.6-2.1l-1.2-0.1c0-0.3,0-0.6,0-0.9c0-0.3,0.1-0.6,0.2-0.9l1.2,0.1
		c0.2-0.7,0.6-1.4,1-1.9l-0.8-1c0.4-0.5,0.9-0.9,1.4-1.2l0.8,1c0.6-0.3,1.3-0.6,2.1-0.6l0.1-1.2c0.3,0,0.6,0,0.9,0
		c0.3,0,0.6,0.1,0.9,0.2L248.4,55L248.4,55z M247.3,56.7c-1.8-0.2-3.3,1.1-3.5,2.9c-0.2,1.8,1.1,3.3,2.9,3.5
		c1.8,0.2,3.3-1.1,3.5-2.9C250.4,58.5,249.1,56.9,247.3,56.7z"/>
	<path class="st2" d="M165.7,234.4c1.1,0,2.2,0.3,3.1,0.7l1.1-1.5c0.8,0.4,1.6,1,2.3,1.6l-1.1,1.5c0.7,0.8,1.3,1.7,1.7,2.7l1.8-0.3
		c0.1,0.4,0.2,0.9,0.3,1.4c0.1,0.5,0.1,0.9,0.1,1.4l-1.8,0.3c0,1.1-0.3,2.2-0.7,3.1l1.5,1.1c-0.4,0.8-1,1.6-1.6,2.3l-1.5-1.1
		c-0.8,0.7-1.7,1.3-2.7,1.7l0.3,1.8c-0.4,0.1-0.9,0.3-1.4,0.3c-0.5,0.1-0.9,0.1-1.4,0.1l-0.3-1.8c-1.1,0-2.2-0.3-3.1-0.7l-1.1,1.5
		c-0.8-0.4-1.6-1-2.3-1.6l1.1-1.5c-0.7-0.8-1.3-1.7-1.7-2.7l-1.8,0.3c-0.1-0.4-0.2-0.9-0.3-1.4c-0.1-0.5-0.1-0.9-0.1-1.4l1.8-0.3
		c0-1.1,0.3-2.2,0.7-3.1l-1.5-1.1c0.4-0.8,1-1.6,1.6-2.3l1.5,1.1c0.8-0.7,1.7-1.3,2.7-1.7l-0.3-1.8c0.4-0.1,0.9-0.2,1.4-0.3
		c0.5-0.1,0.9-0.1,1.4-0.1L165.7,234.4L165.7,234.4z M164.8,237.4c-2.6,0.4-4.4,2.9-3.9,5.5c0.4,2.6,2.9,4.4,5.5,3.9
		c2.6-0.4,4.4-2.9,3.9-5.5C169.8,238.8,167.4,237,164.8,237.4z"/>
	<path class="st4" d="M159.6,215.1c0.7,0.2,1.3,0.4,1.8,0.8l1.4-1.3c1,0.7,1.8,1.5,2.5,2.5l-1.4,1.3c0.3,0.6,0.6,1.2,0.7,1.8l1.9,0
		c0.1,0.6,0.2,1.1,0.2,1.7c0,0.6-0.1,1.2-0.2,1.8l-1.9,0c-0.2,0.6-0.4,1.3-0.8,1.8l1.3,1.4c-0.7,1-1.5,1.8-2.5,2.5l-1.3-1.4
		c-0.6,0.3-1.1,0.6-1.8,0.7v1.9c-0.6,0.1-1.2,0.2-1.8,0.2c-0.6,0-1.2-0.1-1.8-0.2v-1.9c-0.7-0.2-1.3-0.4-1.8-0.8l-1.4,1.3
		c-1-0.7-1.8-1.5-2.5-2.5l1.4-1.3c-0.3-0.6-0.6-1.2-0.7-1.8l-1.9,0c-0.1-0.6-0.2-1.1-0.2-1.7c0-0.6,0.1-1.2,0.2-1.8l1.9,0
		c0.2-0.6,0.4-1.3,0.8-1.8l-1.3-1.4c0.7-1,1.5-1.8,2.5-2.5l1.3,1.4c0.6-0.3,1.1-0.6,1.8-0.7v-1.9c0.6-0.1,1.2-0.2,1.8-0.2
		c0.6,0,1.2,0.1,1.8,0.2V215.1L159.6,215.1z M157.9,217.6c-2.4,0-4.3,1.9-4.3,4.3c0,2.4,1.9,4.3,4.3,4.3c2.4,0,4.3-1.9,4.3-4.3
		C162.2,219.5,160.3,217.6,157.9,217.6L157.9,217.6z M157.9,218.1c-2.1,0-3.8,1.7-3.8,3.8s1.7,3.8,3.8,3.8c2.1,0,3.8-1.7,3.8-3.8
		S160,218.1,157.9,218.1L157.9,218.1z M157.9,217.3c-2.6,0-4.7,2.1-4.7,4.7c0,2.6,2.1,4.7,4.7,4.7c2.6,0,4.7-2.1,4.7-4.7
		C162.5,219.4,160.5,217.3,157.9,217.3z"/>
	<path class="st4" d="M175.6,291h58.4c3.1,0,5.6,2.5,5.6,5.6v1.4c0,3.1-2.5,5.6-5.6,5.6h-58.4c-3.1,0-5.6-2.5-5.6-5.6v-1.4
		C170,293.5,172.5,291,175.6,291z"/>
	<path class="st4" d="M176.5,305.1H233c3,0,5.4,2.4,5.4,5.4v1.4c0,3-2.4,5.4-5.4,5.4h-56.4c-3,0-5.4-2.4-5.4-5.4v-1.4
		C171.2,307.6,173.6,305.1,176.5,305.1z"/>
	<path class="st4" d="M178.6,318.6h52.3c2.7,0,5,2.2,5,5v1.3c0,2.7-2.2,5-5,5h-52.3c-2.7,0-5-2.2-5-5v-1.3
		C173.6,320.8,175.9,318.6,178.6,318.6z"/>
	<path class="st4" d="M220.6,331.5L209.2,343c-2.4,2.4-6.5,2.4-8.9,0l-11.4-11.4H220.6z"/>
	<path class="st4" d="M267.2,177.5l-0.1,1.4c-0.2,0-0.5,0-0.7,0l-0.3-1.3l-0.4,0.1l0.1,1.4c-0.2,0-0.4,0.1-0.6,0.1l-0.4-1.3
		l-0.4,0.1l0.3,1.3c-0.2,0.1-0.4,0.1-0.7,0.2l-0.6-1.2l-0.4,0.2l0.5,1.3c-0.2,0.1-0.3,0.2-0.5,0.3l-0.8-1.1l-0.4,0.2l0.6,1.2
		c-0.2,0.1-0.4,0.3-0.6,0.4l-0.9-1l-0.3,0.3l0.8,1.1c-0.1,0.1-0.3,0.2-0.4,0.4l-1-0.9l-0.3,0.3l0.9,1c-0.2,0.2-0.3,0.3-0.5,0.5
		l-1.1-0.8l-0.3,0.3l1,0.9c-0.1,0.2-0.2,0.3-0.3,0.5l-1.2-0.6l-0.2,0.4l1.1,0.8c-0.1,0.2-0.2,0.4-0.3,0.6l-1.3-0.4l-0.2,0.4l1.2,0.6
		c-0.1,0.2-0.1,0.4-0.2,0.5l-1.3-0.3l-0.1,0.4l1.3,0.4c-0.1,0.2-0.1,0.4-0.1,0.7l-1.4-0.1l-0.1,0.4l1.3,0.3c0,0.2,0,0.4,0,0.6
		l-1.4,0.1v0.4l1.4,0.1c0,0.2,0,0.5,0,0.7l-1.3,0.3l0.1,0.4l1.4-0.1c0,0.2,0.1,0.4,0.1,0.6l-1.3,0.4l0.1,0.4l1.3-0.3
		c0.1,0.2,0.1,0.4,0.2,0.7l-1.2,0.6l0.2,0.4l1.3-0.5c0.1,0.2,0.2,0.3,0.3,0.5l-1.1,0.8l0.2,0.4l1.2-0.6c0.1,0.2,0.2,0.4,0.4,0.6
		l-1,0.9l0.3,0.3l1.1-0.8c0.1,0.1,0.2,0.3,0.4,0.4l-0.9,1l0.3,0.3l1-0.9c0.2,0.2,0.3,0.3,0.5,0.5l-0.8,1.1l0.3,0.3l0.9-1
		c0.2,0.1,0.3,0.2,0.5,0.3l-0.6,1.2l0.4,0.2l0.8-1.1c0.2,0.1,0.4,0.2,0.6,0.3l-0.4,1.3l0.4,0.2l0.6-1.2c0.2,0.1,0.4,0.1,0.5,0.2
		l-0.3,1.3l0.4,0.1l0.4-1.3c0.2,0.1,0.4,0.1,0.7,0.1l-0.1,1.4l0.4,0.1l0.3-1.3c0.2,0,0.4,0,0.6,0l0.1,1.4h0.4l0.1-1.4
		c0.2,0,0.5,0,0.7,0l0.3,1.3l0.4-0.1l-0.1-1.4c0.2,0,0.4-0.1,0.6-0.1l0.4,1.3l0.4-0.1l-0.3-1.3c0.2-0.1,0.4-0.1,0.7-0.2l0.6,1.2
		l0.4-0.2l-0.5-1.3c0.2-0.1,0.3-0.2,0.5-0.3l0.8,1.1l0.4-0.2l-0.6-1.2c0.2-0.1,0.4-0.3,0.6-0.4l0.9,1l0.3-0.3l-0.8-1.1
		c0.1-0.1,0.3-0.2,0.4-0.4l1,0.9l0.3-0.3l-0.9-1c0.2-0.2,0.3-0.3,0.5-0.5l1.1,0.8l0.3-0.3l-1-0.9c0.1-0.2,0.2-0.3,0.3-0.5l1.2,0.6
		l0.2-0.4l-1.1-0.8c0.1-0.2,0.2-0.4,0.3-0.6l1.3,0.4l0.2-0.4l-1.2-0.6c0.1-0.2,0.1-0.4,0.2-0.5l1.3,0.3l0.1-0.4l-1.3-0.4
		c0.1-0.2,0.1-0.4,0.1-0.7l1.4,0.1l0.1-0.4l-1.3-0.3c0-0.2,0-0.4,0-0.6l1.4-0.1V188l-1.4-0.1c0-0.2,0-0.5,0-0.7l1.3-0.3l-0.1-0.4
		l-1.4,0.1c0-0.2-0.1-0.4-0.1-0.6l1.3-0.4l-0.1-0.4l-1.3,0.3c-0.1-0.2-0.1-0.4-0.2-0.7l1.2-0.6l-0.2-0.4l-1.3,0.5
		c-0.1-0.2-0.2-0.3-0.3-0.5l1.1-0.8l-0.2-0.4l-1.2,0.6c-0.1-0.2-0.2-0.4-0.4-0.6l1-0.9l-0.3-0.3l-1.1,0.8c-0.1-0.1-0.2-0.3-0.4-0.4
		l0.9-1l-0.3-0.3l-1,0.9c-0.2-0.2-0.3-0.3-0.5-0.5l0.8-1.1l-0.3-0.3l-0.9,1c-0.2-0.1-0.3-0.2-0.5-0.3l0.6-1.2l-0.4-0.2l-0.8,1.1
		c-0.2-0.1-0.4-0.2-0.6-0.3l0.4-1.3l-0.4-0.2l-0.6,1.2c-0.2-0.1-0.4-0.1-0.5-0.2l0.3-1.3l-0.4-0.1l-0.4,1.3
		c-0.2-0.1-0.4-0.1-0.7-0.1l0.1-1.4l-0.4-0.1l-0.3,1.3c-0.2,0-0.4,0-0.6,0l-0.1-1.4H267.2L267.2,177.5z M267.4,182.4
		c0.4,0,0.7,0.3,0.7,0.7c0,0.4-0.3,0.7-0.7,0.7c-0.4,0-0.7-0.3-0.7-0.7C266.7,182.8,267,182.4,267.4,182.4L267.4,182.4z
		 M272.5,187.5c0.4,0,0.7,0.3,0.7,0.7c0,0.4-0.3,0.7-0.7,0.7c-0.4,0-0.7-0.3-0.7-0.7C271.8,187.8,272.1,187.5,272.5,187.5
		L272.5,187.5z M262.3,187.5c0.4,0,0.7,0.3,0.7,0.7c0,0.4-0.3,0.7-0.7,0.7c-0.4,0-0.7-0.3-0.7-0.7
		C261.6,187.8,261.9,187.5,262.3,187.5L262.3,187.5z M267.4,192.6c0.4,0,0.7,0.3,0.7,0.7c0,0.4-0.3,0.7-0.7,0.7
		c-0.4,0-0.7-0.3-0.7-0.7C266.7,192.9,267,192.6,267.4,192.6L267.4,192.6z M267.4,181.5c-0.8,0-1.5,0.5-1.6,1.3
		c-0.6,0.2-1.2,0.5-1.7,0.9l-0.9-0.9c1.2-0.9,2.7-1.5,4.3-1.5c1.6,0,3.1,0.5,4.3,1.5l-0.9,0.9c-0.5-0.4-1.1-0.7-1.8-0.9
		C268.9,182,268.2,181.5,267.4,181.5L267.4,181.5z M269,183.7c0.4,0.1,0.8,0.3,1.1,0.6l-1.2,1.2c-0.5-0.2-1-0.4-1.5-0.4
		c-0.6,0-1.1,0.1-1.5,0.4l-1.2-1.2c0.3-0.2,0.7-0.4,1.1-0.6c0.2,0.7,0.9,1.2,1.6,1.2C268.2,184.9,268.8,184.4,269,183.7L269,183.7z
		 M272.9,186.6c-0.2-0.6-0.5-1.2-0.9-1.7l0.9-0.9c0.9,1.2,1.5,2.7,1.5,4.3s-0.5,3.1-1.5,4.3l-0.9-0.9c0.4-0.5,0.7-1.1,0.9-1.8
		c0.7-0.2,1.3-0.9,1.3-1.6C274.2,187.4,273.7,186.8,272.9,186.6L272.9,186.6z M272,189.9c-0.1,0.4-0.3,0.8-0.6,1.2l-1.2-1.2
		c0.2-0.5,0.4-1,0.4-1.5c0-0.6-0.1-1.1-0.4-1.5l1.2-1.2c0.2,0.3,0.4,0.7,0.6,1.1c-0.7,0.2-1.2,0.9-1.2,1.6
		C270.8,189,271.3,189.7,272,189.9L272,189.9z M262.8,186.6c0.1-0.4,0.3-0.8,0.6-1.1l1.2,1.2c-0.2,0.5-0.4,1-0.4,1.5
		c0,0.6,0.1,1.1,0.4,1.5l-1.2,1.2c-0.2-0.4-0.4-0.7-0.6-1.2c0.7-0.2,1.2-0.9,1.2-1.6C264,187.5,263.5,186.8,262.8,186.6L262.8,186.6
		z M261.9,189.9c0.2,0.6,0.5,1.2,0.9,1.8l-0.9,0.9c-0.9-1.2-1.5-2.7-1.5-4.3s0.5-3.1,1.5-4.3l0.9,0.9c-0.4,0.5-0.7,1.1-0.9,1.7
		c-0.7,0.2-1.3,0.9-1.3,1.6C260.6,189,261.2,189.7,261.9,189.9L261.9,189.9z M267.4,191.6c-0.8,0-1.4,0.5-1.6,1.2
		c-0.4-0.1-0.8-0.3-1.1-0.6l1.2-1.2c0.5,0.2,1,0.4,1.5,0.4c0.6,0,1.1-0.1,1.5-0.4l1.2,1.2c-0.4,0.2-0.7,0.4-1.2,0.6
		C268.8,192.2,268.2,191.6,267.4,191.6L267.4,191.6z M269,193.8c0.6-0.2,1.3-0.5,1.8-0.9l0.9,0.9c-1.2,0.9-2.7,1.5-4.3,1.5
		c-1.6,0-3.1-0.5-4.3-1.5l0.9-0.9c0.5,0.4,1.1,0.7,1.7,0.9c0.2,0.7,0.9,1.3,1.7,1.3C268.2,195,268.8,194.5,269,193.8L269,193.8z
		 M267.4,187c0.7,0,1.2,0.5,1.2,1.2c0,0.7-0.5,1.2-1.2,1.2c-0.7,0-1.2-0.5-1.2-1.2C266.2,187.6,266.7,187,267.4,187z"/>
	<path class="st4" d="M217.4,43l0,0.8c-0.1,0-0.3,0-0.4,0l-0.2-0.8l-0.2,0l0.1,0.8c-0.1,0-0.2,0-0.3,0.1l-0.2-0.7l-0.2,0.1L216,44
		c-0.1,0-0.2,0.1-0.4,0.1l-0.3-0.7l-0.2,0.1l0.3,0.7c-0.1,0-0.2,0.1-0.3,0.1l-0.4-0.6l-0.2,0.1l0.3,0.7c-0.1,0.1-0.2,0.1-0.3,0.2
		l-0.5-0.6l-0.2,0.1l0.4,0.6c-0.1,0.1-0.2,0.1-0.2,0.2l-0.6-0.5l-0.2,0.2l0.5,0.6c-0.1,0.1-0.2,0.2-0.3,0.3l-0.6-0.4l-0.1,0.2
		l0.6,0.5c-0.1,0.1-0.1,0.2-0.2,0.3l-0.7-0.3l-0.1,0.2l0.6,0.4c-0.1,0.1-0.1,0.2-0.2,0.3l-0.7-0.2l-0.1,0.2l0.7,0.3
		c0,0.1-0.1,0.2-0.1,0.3l-0.8-0.2l-0.1,0.2l0.7,0.2c0,0.1-0.1,0.3-0.1,0.4l-0.8,0l0,0.2l0.8,0.1c0,0.1,0,0.2,0,0.3l-0.8,0v0.2l0.8,0
		c0,0.1,0,0.3,0,0.4l-0.8,0.2l0,0.2l0.8-0.1c0,0.1,0,0.2,0.1,0.3l-0.7,0.2l0.1,0.2l0.8-0.2c0,0.1,0.1,0.2,0.1,0.4l-0.7,0.3l0.1,0.2
		l0.7-0.3c0,0.1,0.1,0.2,0.1,0.3l-0.6,0.4l0.1,0.2l0.7-0.3c0.1,0.1,0.1,0.2,0.2,0.3l-0.6,0.5l0.1,0.2l0.6-0.4
		c0.1,0.1,0.1,0.2,0.2,0.2l-0.5,0.6l0.2,0.2l0.6-0.5c0.1,0.1,0.2,0.2,0.3,0.3l-0.4,0.6l0.2,0.1l0.5-0.6c0.1,0.1,0.2,0.1,0.3,0.2
		l-0.3,0.7l0.2,0.1l0.4-0.6c0.1,0.1,0.2,0.1,0.3,0.2l-0.2,0.7l0.2,0.1l0.3-0.7c0.1,0,0.2,0.1,0.3,0.1l-0.2,0.8l0.2,0.1l0.2-0.7
		c0.1,0,0.3,0.1,0.4,0.1l0,0.8l0.2,0l0.1-0.8c0.1,0,0.2,0,0.3,0l0,0.8h0.2l0-0.8c0.1,0,0.3,0,0.4,0l0.2,0.8l0.2,0l-0.1-0.8
		c0.1,0,0.2,0,0.3-0.1l0.2,0.7l0.2-0.1L219,54c0.1,0,0.2-0.1,0.4-0.1l0.3,0.7l0.2-0.1l-0.3-0.7c0.1,0,0.2-0.1,0.3-0.1l0.4,0.6
		l0.2-0.1l-0.3-0.7c0.1-0.1,0.2-0.1,0.3-0.2l0.5,0.6l0.2-0.1l-0.4-0.6c0.1-0.1,0.2-0.1,0.2-0.2l0.6,0.5l0.2-0.2l-0.5-0.6
		c0.1-0.1,0.2-0.2,0.3-0.3l0.6,0.4l0.1-0.2l-0.6-0.5c0.1-0.1,0.1-0.2,0.2-0.3l0.7,0.3l0.1-0.2l-0.6-0.4c0.1-0.1,0.1-0.2,0.2-0.3
		l0.7,0.2l0.1-0.2l-0.7-0.3c0-0.1,0.1-0.2,0.1-0.3l0.8,0.2l0.1-0.2l-0.7-0.2c0-0.1,0.1-0.3,0.1-0.4l0.8,0l0-0.2l-0.8-0.1
		c0-0.1,0-0.2,0-0.3l0.8,0v-0.2l-0.8,0c0-0.1,0-0.3,0-0.4l0.8-0.2l0-0.2l-0.8,0.1c0-0.1,0-0.2-0.1-0.3l0.7-0.2l-0.1-0.2l-0.8,0.2
		c0-0.1-0.1-0.2-0.1-0.4l0.7-0.3l-0.1-0.2l-0.7,0.3c0-0.1-0.1-0.2-0.1-0.3l0.6-0.4l-0.1-0.2l-0.7,0.3c-0.1-0.1-0.1-0.2-0.2-0.3
		l0.6-0.5l-0.1-0.2l-0.6,0.4c-0.1-0.1-0.1-0.2-0.2-0.2l0.5-0.6l-0.2-0.2l-0.6,0.5c-0.1-0.1-0.2-0.2-0.3-0.3l0.4-0.6l-0.2-0.1
		l-0.5,0.6c-0.1-0.1-0.2-0.1-0.3-0.2l0.3-0.7l-0.2-0.1l-0.4,0.6c-0.1-0.1-0.2-0.1-0.3-0.2l0.2-0.7l-0.2-0.1l-0.3,0.7
		c-0.1,0-0.2-0.1-0.3-0.1l0.2-0.8l-0.2-0.1l-0.2,0.7c-0.1,0-0.3-0.1-0.4-0.1l0-0.8l-0.2,0l-0.1,0.8c-0.1,0-0.2,0-0.3,0l0-0.8H217.4
		L217.4,43z M217.5,45.7c0.2,0,0.4,0.2,0.4,0.4c0,0.2-0.2,0.4-0.4,0.4c-0.2,0-0.4-0.2-0.4-0.4C217.1,45.9,217.3,45.7,217.5,45.7
		L217.5,45.7z M220.4,48.6c0.2,0,0.4,0.2,0.4,0.4c0,0.2-0.2,0.4-0.4,0.4c-0.2,0-0.4-0.2-0.4-0.4C219.9,48.8,220.1,48.6,220.4,48.6
		L220.4,48.6z M214.6,48.6c0.2,0,0.4,0.2,0.4,0.4c0,0.2-0.2,0.4-0.4,0.4c-0.2,0-0.4-0.2-0.4-0.4C214.2,48.8,214.4,48.6,214.6,48.6
		L214.6,48.6z M217.5,51.5c0.2,0,0.4,0.2,0.4,0.4c0,0.2-0.2,0.4-0.4,0.4c-0.2,0-0.4-0.2-0.4-0.4C217.1,51.6,217.3,51.5,217.5,51.5
		L217.5,51.5z M217.5,45.2c-0.4,0-0.8,0.3-0.9,0.7c-0.4,0.1-0.7,0.3-1,0.5l-0.5-0.5c0.7-0.5,1.5-0.8,2.4-0.8c0.9,0,1.7,0.3,2.4,0.8
		l-0.5,0.5c-0.3-0.2-0.6-0.4-1-0.5C218.3,45.5,217.9,45.2,217.5,45.2L217.5,45.2z M218.4,46.4c0.2,0.1,0.4,0.2,0.6,0.3l-0.7,0.7
		c-0.3-0.1-0.5-0.2-0.9-0.2c-0.3,0-0.6,0.1-0.9,0.2l-0.7-0.7c0.2-0.1,0.4-0.2,0.6-0.3c0.1,0.4,0.5,0.7,0.9,0.7
		C217.9,47.1,218.3,46.8,218.4,46.4L218.4,46.4z M220.6,48.1c-0.1-0.4-0.3-0.7-0.5-1l0.5-0.5c0.5,0.7,0.8,1.5,0.8,2.4
		c0,0.9-0.3,1.7-0.8,2.4l-0.5-0.5c0.2-0.3,0.4-0.6,0.5-1c0.4-0.1,0.7-0.5,0.7-0.9C221.3,48.6,221,48.2,220.6,48.1L220.6,48.1z
		 M220.1,49.9c-0.1,0.2-0.2,0.4-0.3,0.6l-0.7-0.7c0.1-0.3,0.2-0.5,0.2-0.9c0-0.3-0.1-0.6-0.2-0.9l0.7-0.7c0.1,0.2,0.2,0.4,0.3,0.6
		c-0.4,0.1-0.7,0.5-0.7,0.9C219.4,49.4,219.7,49.8,220.1,49.9L220.1,49.9z M214.9,48.1c0.1-0.2,0.2-0.4,0.3-0.6l0.7,0.7
		c-0.1,0.3-0.2,0.5-0.2,0.9c0,0.3,0.1,0.6,0.2,0.9l-0.7,0.7c-0.1-0.2-0.2-0.4-0.3-0.6c0.4-0.1,0.7-0.5,0.7-0.9
		C215.6,48.6,215.3,48.2,214.9,48.1L214.9,48.1z M214.4,49.9c0.1,0.4,0.3,0.7,0.5,1l-0.5,0.5c-0.5-0.7-0.8-1.5-0.8-2.4
		c0-0.9,0.3-1.7,0.8-2.4l0.5,0.5c-0.2,0.3-0.4,0.6-0.5,1c-0.4,0.1-0.7,0.5-0.7,0.9C213.7,49.4,214,49.8,214.4,49.9L214.4,49.9z
		 M217.5,50.9c-0.4,0-0.8,0.3-0.9,0.7c-0.2-0.1-0.4-0.2-0.6-0.3l0.7-0.7c0.3,0.1,0.5,0.2,0.9,0.2c0.3,0,0.6-0.1,0.9-0.2l0.7,0.7
		c-0.2,0.1-0.4,0.2-0.7,0.3C218.3,51.2,217.9,50.9,217.5,50.9L217.5,50.9z M218.4,52.1c0.4-0.1,0.7-0.3,1-0.5l0.5,0.5
		c-0.7,0.5-1.5,0.8-2.4,0.8c-0.9,0-1.7-0.3-2.4-0.8l0.5-0.5c0.3,0.2,0.6,0.4,1,0.5c0.1,0.4,0.5,0.7,0.9,0.7
		C217.9,52.8,218.3,52.5,218.4,52.1L218.4,52.1z M217.5,48.3c0.4,0,0.7,0.3,0.7,0.7c0,0.4-0.3,0.7-0.7,0.7s-0.7-0.3-0.7-0.7
		C216.8,48.6,217.1,48.3,217.5,48.3z"/>
	<path class="st2" d="M184.3,54.4l0.3-0.6c0.7,0.1,1.3,0.4,1.9,0.8l-0.3,0.6c0.4,0.3,0.8,0.6,1.1,1.1l0.6-0.2
		c0.2,0.3,0.3,0.6,0.5,0.9c0.1,0.3,0.2,0.7,0.3,1l-0.6,0.2c0.1,0.5,0.1,1,0,1.5l0.6,0.3c-0.1,0.7-0.4,1.3-0.8,1.9l-0.6-0.3
		c-0.3,0.4-0.6,0.7-1,1l0.3,0.6c-0.3,0.2-0.6,0.4-0.9,0.5c-0.3,0.1-0.7,0.2-1,0.3l-0.3-0.6c-0.5,0.1-1,0.1-1.5,0l-0.3,0.6
		c-0.7-0.1-1.3-0.4-1.9-0.8l0.3-0.6c-0.4-0.3-0.8-0.6-1.1-1.1l-0.6,0.2c-0.2-0.3-0.3-0.6-0.5-0.9c-0.1-0.3-0.2-0.7-0.3-1l0.6-0.2
		c-0.1-0.5-0.1-1,0-1.5l-0.6-0.3c0.1-0.7,0.4-1.3,0.8-1.9l0.6,0.3c0.3-0.4,0.6-0.7,1-1l-0.3-0.6c0.3-0.2,0.6-0.4,0.9-0.5
		c0.3-0.1,0.7-0.2,1-0.3l0.3,0.6C183.3,54.3,183.8,54.3,184.3,54.4L184.3,54.4z M186.2,57l-0.5,0.5c0.1,0.1,0.2,0.3,0.2,0.4
		c0.3,0.8,0.2,1.7-0.2,2.4l0.5,0.5c0.2-0.2,0.3-0.4,0.4-0.7c0.3-0.8,0.3-1.6,0-2.5C186.4,57.4,186.3,57.2,186.2,57L186.2,57z
		 M185.2,57.9l-0.6,0.6c0.1,0.2,0.1,0.5,0,0.7l0.6,0.6c0-0.1,0.1-0.1,0.1-0.2c0.2-0.4,0.2-1,0-1.4C185.3,58.1,185.2,58,185.2,57.9
		L185.2,57.9z M183.2,59.9l-0.6,0.6c0.1,0,0.1,0.1,0.2,0.1c0.4,0.2,1,0.2,1.4,0c0.1,0,0.1-0.1,0.2-0.1l-0.6-0.6
		C183.7,60,183.4,60,183.2,59.9L183.2,59.9z M182.2,61l-0.5,0.5c0.2,0.2,0.4,0.3,0.7,0.4c0.8,0.3,1.6,0.3,2.5,0
		c0.2-0.1,0.5-0.2,0.7-0.4L185,61c-0.1,0.1-0.3,0.2-0.4,0.2C183.7,61.5,182.8,61.4,182.2,61L182.2,61z M181,60.8l0.5-0.5
		c-0.1-0.1-0.2-0.3-0.2-0.4c-0.3-0.8-0.2-1.7,0.2-2.4L181,57c-0.2,0.2-0.3,0.4-0.4,0.7c-0.3,0.8-0.3,1.6,0,2.5
		C180.7,60.3,180.8,60.6,181,60.8L181,60.8z M181.9,59.8l0.6-0.6c-0.1-0.2-0.1-0.5,0-0.7l-0.6-0.6c0,0.1-0.1,0.1-0.1,0.2
		c-0.2,0.4-0.2,1,0,1.4C181.9,59.7,181.9,59.7,181.9,59.8L181.9,59.8z M183.9,57.8l0.6-0.6c-0.1,0-0.1-0.1-0.2-0.1
		c-0.4-0.2-1-0.2-1.4,0c-0.1,0-0.1,0.1-0.2,0.1l0.6,0.6C183.4,57.8,183.7,57.8,183.9,57.8L183.9,57.8z M185,56.8l0.5-0.5
		c-0.2-0.2-0.4-0.3-0.7-0.4c-0.8-0.3-1.6-0.3-2.5,0c-0.2,0.1-0.5,0.2-0.7,0.4l0.5,0.5c0.1-0.1,0.3-0.2,0.4-0.2
		C183.4,56.2,184.3,56.3,185,56.8z"/>
</g>
</svg>
